<?xml version="1.0" encoding="utf-8"?>
<svg xmlns="http://www.w3.org/2000/svg" xmlns:xlink="http://www.w3.org/1999/xlink">
    <symbol viewBox="0 0 23 25" fill="none"
        xmlns="http://www.w3.org/2000/svg" id="icon-docx">
        <path
            d="M6.78016 0.153809H15.2494L22.4517 7.30923V21.362C22.4517 22.3004 21.5368 24.1538 19.6365 24.1538H6.7567C5.5133 24.1538 4.08221 22.535 4.08221 21.5497V2.89868C4.08221 1.58489 5.6306 0.153809 6.78016 0.153809Z"
            fill="#008BF5" />
        <path
            d="M15.2502 0.153809L22.4525 7.30924H15.9305C15.5317 7.30924 15.2502 6.91041 15.2502 6.65235V0.153809Z"
            fill="#006FC4" />
        <path
            d="M0 10.8994C0 10.6402 0.210072 10.4302 0.469208 10.4302H17.3607C17.6198 10.4302 17.8299 10.6402 17.8299 10.8994V17.2806C17.8299 17.5398 17.6198 17.7498 17.3607 17.7498H0.469209C0.210072 17.7498 0 17.5398 0 17.2806V10.8994Z"
            fill="#006FC4" />
        <path
            d="M2.51774 16.6232H1.66547L1.67234 16.0836H2.51774C2.81787 16.0836 3.06187 16.0264 3.24973 15.9118C3.4376 15.795 3.57621 15.6231 3.66556 15.3963C3.75491 15.1672 3.79959 14.8843 3.79959 14.5475V13.6918C3.79959 13.426 3.77438 13.1969 3.72398 13.0045C3.67358 12.812 3.59797 12.6539 3.49717 12.5302C3.39636 12.4065 3.26921 12.3148 3.11571 12.2553C2.9622 12.1934 2.78236 12.1625 2.57616 12.1625H1.64828V11.6195H2.57616C2.85796 11.6195 3.11227 11.6642 3.33908 11.7535C3.5659 11.8406 3.76064 11.9723 3.9233 12.1487C4.08597 12.3229 4.20968 12.5394 4.29445 12.7983C4.38151 13.0572 4.42504 13.3573 4.42504 13.6986V14.5475C4.42504 14.8889 4.38151 15.189 4.29445 15.4479C4.20968 15.7068 4.08482 15.9233 3.91987 16.0974C3.75491 16.2715 3.55444 16.4032 3.31846 16.4926C3.08478 16.5797 2.81787 16.6232 2.51774 16.6232ZM2.016 11.6195V16.6232H1.38367V11.6195H2.016Z"
            fill="white" />
        <path
            d="M8.65892 13.6883V14.5578C8.65892 14.9106 8.61997 15.2211 8.54207 15.4891C8.46647 15.7549 8.35535 15.9771 8.20872 16.1558C8.0621 16.3345 7.88568 16.4685 7.67949 16.5579C7.47329 16.6472 7.24075 16.6919 6.98186 16.6919C6.73214 16.6919 6.50418 16.6472 6.29798 16.5579C6.09179 16.4685 5.91423 16.3345 5.76531 16.1558C5.61639 15.9771 5.50069 15.7549 5.41822 15.4891C5.33803 15.2211 5.29794 14.9106 5.29794 14.5578V13.6883C5.29794 13.3355 5.33803 13.0262 5.41822 12.7605C5.4984 12.4924 5.61296 12.269 5.76188 12.0903C5.91079 11.9116 6.08835 11.7776 6.29455 11.6882C6.50074 11.5966 6.7287 11.5508 6.97843 11.5508C7.23732 11.5508 7.46986 11.5966 7.67605 11.6882C7.88454 11.7776 8.06095 11.9116 8.20529 12.0903C8.35191 12.269 8.46418 12.4924 8.54207 12.7605C8.61997 13.0262 8.65892 13.3355 8.65892 13.6883ZM8.03346 14.5578V13.6815C8.03346 13.4065 8.01055 13.1706 7.96473 12.9735C7.9189 12.7742 7.85132 12.6115 7.76197 12.4855C7.67262 12.3595 7.56265 12.2667 7.43205 12.2072C7.30147 12.1453 7.15026 12.1144 6.97843 12.1144C6.81576 12.1144 6.66913 12.1453 6.53854 12.2072C6.41024 12.2667 6.30027 12.3595 6.20863 12.4855C6.11699 12.6115 6.04597 12.7742 5.99556 12.9735C5.94745 13.1706 5.92339 13.4065 5.92339 13.6815V14.5578C5.92339 14.835 5.94745 15.0733 5.99556 15.2726C6.04597 15.4696 6.11699 15.6323 6.20863 15.7606C6.30256 15.8866 6.41483 15.9805 6.54542 16.0424C6.67601 16.102 6.82149 16.1317 6.98186 16.1317C7.15369 16.1317 7.3049 16.102 7.43549 16.0424C7.56837 15.9805 7.67834 15.8866 7.7654 15.7606C7.85475 15.6323 7.9212 15.4696 7.96473 15.2726C8.01055 15.0733 8.03346 14.835 8.03346 14.5578Z"
            fill="white" />
        <path
            d="M12.1436 15.032H12.7759C12.7599 15.3757 12.69 15.6724 12.5663 15.9221C12.4449 16.1696 12.2673 16.3597 12.0336 16.4926C11.8022 16.6255 11.5124 16.6919 11.1642 16.6919C10.9145 16.6919 10.6888 16.6427 10.4872 16.5441C10.2856 16.4456 10.1126 16.3047 9.96825 16.1214C9.82621 15.9359 9.71738 15.7136 9.64178 15.4547C9.56617 15.1959 9.52837 14.9049 9.52837 14.5818V13.6574C9.52837 13.3367 9.56617 13.0468 9.64178 12.788C9.71967 12.5291 9.83079 12.308 9.97513 12.1247C10.1218 11.9391 10.2993 11.7971 10.5078 11.6986C10.7186 11.6 10.9568 11.5508 11.2226 11.5508C11.5479 11.5508 11.8229 11.6161 12.0474 11.7467C12.2742 11.875 12.4483 12.064 12.5697 12.3137C12.6935 12.5611 12.7622 12.8647 12.7759 13.2244H12.1436C12.1276 12.9609 12.0863 12.7467 12.0199 12.5818C11.9535 12.4145 11.8549 12.2919 11.7243 12.214C11.596 12.1339 11.4288 12.0938 11.2226 12.0938C11.0393 12.0938 10.8801 12.1304 10.7449 12.2037C10.612 12.277 10.5021 12.3824 10.415 12.5199C10.3302 12.6551 10.2661 12.8189 10.2226 13.0113C10.1813 13.2015 10.1607 13.4146 10.1607 13.6505V14.5818C10.1607 14.8018 10.1779 15.0068 10.2123 15.197C10.2489 15.3872 10.3062 15.5544 10.3841 15.6987C10.4643 15.8408 10.5685 15.9519 10.6968 16.0321C10.8251 16.1123 10.9809 16.1524 11.1642 16.1524C11.3956 16.1524 11.5789 16.1146 11.714 16.039C11.8492 15.9634 11.9489 15.8431 12.013 15.6781C12.0795 15.5132 12.123 15.2978 12.1436 15.032Z"
            fill="white" />
        <path
            d="M14.0922 11.6195L15.0407 13.5371L15.9823 11.6195H16.7177L15.4152 14.0973L16.7452 16.6232H16.0029L15.0407 14.6678L14.075 16.6232H13.3292L14.6626 14.0973L13.3567 11.6195H14.0922Z"
            fill="white" />
    </symbol>

    <symbol viewBox="0 0 23 25" fill="none"
        xmlns="http://www.w3.org/2000/svg" id="icon-pdf">
        <path
            d="M6.78016 0H15.2494L22.4517 7.15543V21.2082C22.4517 22.1466 21.5368 24 19.6365 24H6.7567C5.5133 24 4.08221 22.3812 4.08221 21.3959V2.74487C4.08221 1.43108 5.6306 0 6.78016 0Z"
            fill="#E5252A" />
        <path
            d="M15.2502 0L22.4525 7.15543H15.9305C15.5317 7.15543 15.2502 6.7566 15.2502 6.49854V0Z"
            fill="#B71D21" />
        <path
            d="M0 10.7456C0 10.4864 0.210072 10.2764 0.469208 10.2764H17.3607C17.6198 10.2764 17.8299 10.4864 17.8299 10.7456V17.1268C17.8299 17.3859 17.6198 17.596 17.3607 17.596H0.469209C0.210072 17.596 0 17.3859 0 17.1268V10.7456Z"
            fill="#B71D21" />
        <path
            d="M5.3721 14.5072H4.27927V13.9677H5.3721C5.5783 13.9677 5.7444 13.9264 5.87041 13.8439C5.99871 13.7615 6.09149 13.6469 6.14877 13.5003C6.20834 13.3537 6.23812 13.1864 6.23812 12.9985C6.23812 12.8267 6.20834 12.6652 6.14877 12.514C6.09149 12.3628 5.99871 12.2413 5.87041 12.1497C5.7444 12.0558 5.5783 12.0088 5.3721 12.0088H4.40986V16.4695H3.77753V11.4658H5.3721C5.69514 11.4658 5.96778 11.5311 6.19001 11.6617C6.41224 11.7923 6.58063 11.9733 6.69519 12.2047C6.81203 12.4338 6.87045 12.6961 6.87045 12.9917C6.87045 13.3124 6.81203 13.5862 6.69519 13.813C6.58063 14.0398 6.41224 14.2128 6.19001 14.3319C5.96778 14.4488 5.69514 14.5072 5.3721 14.5072Z"
            fill="white" />
        <path
            d="M8.81556 16.4695H7.96329L7.97016 15.9299H8.81556C9.11569 15.9299 9.35968 15.8727 9.54755 15.7581C9.73542 15.6413 9.87403 15.4694 9.96338 15.2426C10.0527 15.0135 10.0974 14.7306 10.0974 14.3938V13.5381C10.0974 13.2723 10.0722 13.0432 10.0218 12.8508C9.9714 12.6583 9.89579 12.5002 9.79499 12.3765C9.69418 12.2528 9.56703 12.1612 9.41352 12.1016C9.26002 12.0397 9.08018 12.0088 8.87398 12.0088H7.9461V11.4658H8.87398C9.15578 11.4658 9.41009 11.5105 9.6369 11.5998C9.86372 11.6869 10.0585 11.8186 10.2211 11.9951C10.3838 12.1692 10.5075 12.3857 10.5923 12.6446C10.6793 12.9035 10.7229 13.2036 10.7229 13.545V14.3938C10.7229 14.7352 10.6793 15.0353 10.5923 15.2942C10.5075 15.5531 10.3826 15.7696 10.2177 15.9437C10.0527 16.1178 9.85226 16.2495 9.61628 16.3389C9.3826 16.426 9.11569 16.4695 8.81556 16.4695ZM8.31382 11.4658V16.4695H7.68149V11.4658H8.31382Z"
            fill="white" />
        <path
            d="M12.3346 11.4658V16.4695H11.7023V11.4658H12.3346ZM14.022 13.7168V14.2598H12.2143V13.7168H14.022ZM14.3072 11.4658V12.0088H12.2143V11.4658H14.3072Z"
            fill="white" />
    </symbol>

    <symbol width="8" height="12" viewBox="0 0 8 12" fill="none" xmlns="http://www.w3.org/2000/svg"
        id="breadcrumb-arrow">
        <path fill-rule="evenodd" clip-rule="evenodd"
            d="M0.910765 11.5894C0.585328 11.264 0.585328 10.7363 0.910765 10.4109L5.32151 6.00016L0.910765 1.58942C0.585328 1.26398 0.585328 0.736344 0.910765 0.410908C1.2362 0.0854702 1.76384 0.0854702 2.08928 0.410908L7.08928 5.41091C7.41471 5.73634 7.41471 6.26398 7.08928 6.58942L2.08928 11.5894C1.76384 11.9149 1.2362 11.9149 0.910765 11.5894Z"
            fill="white" fill-opacity="0.8" />
    </symbol>

    <symbol width="9" height="16" viewBox="0 0 9 16" fill="none" xmlns="http://www.w3.org/2000/svg"
        id="button-arrow">
        <path fill-rule="evenodd" clip-rule="evenodd"
            d="M1.892 7.964L8.428 14.5L7.5 15.43L0.5 8.426V7.499L7.5 0.5L8.428 1.428L1.892 7.964Z"
            fill="white" />
    </symbol>

    <symbol id="eye" width="24" height="24" viewBox="0 0 24 24" fill="none"
        xmlns="http://www.w3.org/2000/svg">
        <path fill-rule="evenodd" clip-rule="evenodd"
            d="M1.5 15C1.5 9.15 6.15 4.5 12 4.5C17.85 4.5 22.5 9.15 22.5 15H21C21 10.05 16.95 6 12 6C7.05 6 3 10.05 3 15H1.5ZM7.5 15C7.5 12.45 9.45 10.5 12 10.5C14.55 10.5 16.5 12.45 16.5 15C16.5 17.55 14.55 19.5 12 19.5C9.45 19.5 7.5 17.55 7.5 15ZM9 15C9 16.65 10.35 18 12 18C13.65 18 15 16.65 15 15C15 13.35 13.65 12 12 12C10.35 12 9 13.35 9 15Z"
            fill="white" />
    </symbol>

    <symbol id="lk" width="24" height="24" viewBox="0 0 24 24" fill="none"
        xmlns="http://www.w3.org/2000/svg">
        <path fill-rule="evenodd" clip-rule="evenodd"
            d="M2 23C2 17.4772 6.47715 13 12 13C17.5228 13 22 17.4772 22 23V24H2V23ZM3.5 22.5H20.5C20 18 16.5 14.5 12 14.5C7.5 14.5 4 18 3.5 22.5Z"
            fill="#FEFEFE" />
        <circle cx="12" cy="7" r="5" fill="white" />
    </symbol>

    <symbol id="search" width="24" height="24" viewBox="0 0 24 24" fill="none"
        xmlns="http://www.w3.org/2000/svg">
        <path
            d="M15.0565 1C13.6001 0.999275 12.1745 1.4193 10.9512 2.20956C9.7278 2.99982 8.75878 4.12666 8.16064 5.45457C7.5625 6.78248 7.3607 8.25492 7.57953 9.69479C7.79835 11.1347 8.42848 12.4807 9.39412 13.5709L2 21.9638L3.0262 22.88L10.402 14.5238C11.3508 15.2665 12.4633 15.7717 13.6469 15.9972C14.8304 16.2228 16.0508 16.1623 17.2062 15.8206C18.3617 15.479 19.4187 14.8662 20.2893 14.0332C21.1599 13.2003 21.8188 12.1713 22.2112 11.0321C22.6035 9.89292 22.7179 8.67644 22.5449 7.48405C22.3718 6.29167 21.9163 5.15791 21.2163 4.17725C20.5163 3.19658 19.592 2.39742 18.5205 1.84634C17.4491 1.29526 16.2614 1.00823 15.0565 1.00916V1ZM15.0565 14.7437C13.4163 14.7437 11.8432 14.0921 10.6833 12.9323C9.52346 11.7724 8.87186 10.1993 8.87186 8.55905C8.87186 6.91877 9.52346 5.34567 10.6833 4.18582C11.8432 3.02597 13.4163 2.37437 15.0565 2.37437C16.6968 2.37437 18.2699 3.02597 19.4298 4.18582C20.5896 5.34567 21.2412 6.91877 21.2412 8.55905C21.2412 10.1993 20.5896 11.7724 19.4298 12.9323C18.2699 14.0921 16.6968 14.7437 15.0565 14.7437Z"
            fill="white" />
    </symbol>

    <symbol id="more-arrow" width="9" height="16" viewBox="0 0 9 16" fill="none"
        xmlns="http://www.w3.org/2000/svg">
        <path fill-rule="evenodd" clip-rule="evenodd"
            d="M7.10802 8.03601L0.572021 1.50001L1.49902 0.570007L8.49902 7.57401V8.50101L1.49902 15.5L0.572021 14.571L7.10802 8.03601Z"
            fill="#111111" />
    </symbol>

    <symbol id="services-oborudovanie" width="22" height="19" viewBox="0 0 22 19" fill="none"
        xmlns="http://www.w3.org/2000/svg">
        <path
            d="M16.654 6.20195C16.3898 6.20195 16.1666 6.11149 15.9846 5.93057C15.8025 5.74966 15.7115 5.52547 15.7115 5.25802C15.7115 5.13217 15.7375 5.01156 15.7894 4.89617C15.8413 4.78079 15.908 4.68237 15.9894 4.60092C16.1849 4.40546 16.6202 4.19073 17.2952 3.95675L18.3076 3.6058C18.1871 3.9699 18.0686 4.309 17.9519 4.6231C17.8583 4.8872 17.7524 5.14583 17.6343 5.399C17.5162 5.65217 17.4099 5.82622 17.3153 5.92117C17.232 6.00451 17.1321 6.07213 17.0155 6.12405C16.8989 6.17598 16.7784 6.20195 16.654 6.20195ZM2.63247 18.2596C2.13522 18.2596 1.70998 18.0826 1.35677 17.7285C1.00357 17.3745 0.826965 16.949 0.826965 16.4519V3.49042C0.826965 2.99331 1.00402 2.56775 1.35814 2.21375C1.71226 1.85975 2.13794 1.68275 2.63519 1.68275H8.05987C8.55713 1.68275 8.98237 1.85975 9.33557 2.21375C9.68877 2.56775 9.86537 2.99331 9.86537 3.49042V11.4058C10.0218 11.3237 10.1929 11.2532 10.3788 11.1942C10.5647 11.1353 10.7718 11.1058 11 11.1058C11.7318 11.1058 12.3539 11.3619 12.8662 11.8742C13.3784 12.3865 13.6346 13.0085 13.6346 13.7404V15.625C13.6346 15.9465 13.7434 16.2159 13.9609 16.4334C14.1784 16.6509 14.448 16.7596 14.7695 16.7596C15.0911 16.7596 15.3605 16.6509 15.5779 16.4334C15.7952 16.2159 15.9038 15.9465 15.9038 15.625V10.7211H14.9615V9.44037C14.1192 9.07627 13.4375 8.52115 12.9163 7.775C12.3952 7.02885 12.1346 6.19039 12.1346 5.25962C12.1346 4.00451 12.5752 2.93753 13.4565 2.0587C14.3377 1.17987 15.4035 0.740448 16.6538 0.740448C17.9089 0.740448 18.9759 1.17987 19.8547 2.0587C20.7336 2.93753 21.173 4.00451 21.173 5.25962C21.173 6.19039 20.9124 7.02885 20.3913 7.775C19.8701 8.52115 19.1884 9.07627 18.3461 9.44037V10.7211H17.4038V15.625C17.4038 16.3568 17.1478 16.9789 16.6357 17.4911C16.1236 18.0034 15.5019 18.2596 14.7703 18.2596C14.0388 18.2596 13.4167 18.0034 12.9038 17.4911C12.391 16.9789 12.1346 16.3568 12.1346 15.625V13.7404C12.1346 13.4189 12.0258 13.1494 11.8083 12.9319C11.5908 12.7145 11.3212 12.6058 10.9997 12.6058C10.6781 12.6058 10.4086 12.7145 10.1913 12.9319C9.97402 13.1494 9.86537 13.4189 9.86537 13.7404V16.4519C9.86537 16.949 9.68831 17.3745 9.33419 17.7285C8.98009 18.0826 8.55441 18.2596 8.05714 18.2596H2.63247ZM16.6549 8.27887C17.4939 8.27887 18.2067 7.98522 18.7932 7.39792C19.3798 6.81064 19.673 6.0975 19.673 5.2585C19.673 4.41952 19.3794 3.70675 18.7921 3.1202C18.2048 2.53366 17.4917 2.2404 16.6527 2.2404C15.8137 2.2404 15.1009 2.53405 14.5144 3.12135C13.9279 3.70863 13.6346 4.42177 13.6346 5.26077C13.6346 6.09976 13.9282 6.81251 14.5155 7.39905C15.1028 7.9856 15.816 8.27887 16.6549 8.27887ZM2.63464 16.7596H8.05769C8.14744 16.7596 8.22117 16.7308 8.27887 16.673C8.33655 16.6153 8.36539 16.5416 8.36539 16.4519V14.2211L6.48079 16.1057V13.9827L8.36539 12.0981V9.50957L6.48079 11.3942V9.27115L8.36539 7.38655V4.79805L6.48079 6.68267V4.55965L7.77119 3.26925C7.74554 3.2372 7.71509 3.21477 7.67984 3.20195C7.64457 3.18912 7.6013 3.1827 7.55002 3.1827H3.14232C3.09103 3.1827 3.04777 3.18912 3.01252 3.20195C2.97725 3.21477 2.94679 3.2372 2.92114 3.26925L4.21154 4.55965V6.68267L2.32694 4.79805V7.38655L4.21154 9.27115V11.3942L2.32694 9.50957V12.0981L4.21154 13.9827V16.1057L2.32694 14.2211V16.4519C2.32694 16.5416 2.35579 16.6153 2.41349 16.673C2.47117 16.7308 2.54489 16.7596 2.63464 16.7596Z"
            fill="#3C3C3C" />
    </symbol>

    <symbol id="services-pso" width="18" height="18" viewBox="0 0 18 18" fill="none"
        xmlns="http://www.w3.org/2000/svg">
        <path
            d="M4.5769 15.5577L6.7115 11.9423H5.43265V9.18271L3.28845 12.7981H4.5769V15.5577ZM1.99997 7.25003H7.99997V2.30773C7.99997 2.2308 7.96792 2.16027 7.90382 2.09616C7.83971 2.03206 7.76918 2.00001 7.69225 2.00001H2.3077C2.23077 2.00001 2.16024 2.03206 2.09612 2.09616C2.03202 2.16027 1.99997 2.2308 1.99997 2.30773V7.25003ZM1.99997 16H7.99997V8.74998H1.99997V16ZM0.5 17.5V2.30773C0.5 1.8026 0.675 1.37503 1.025 1.02503C1.375 0.675031 1.80257 0.500031 2.3077 0.500031H7.69225C8.19738 0.500031 8.62495 0.675031 8.97495 1.02503C9.32495 1.37503 9.49995 1.8026 9.49995 2.30773V8.80768H10.6153C11.073 8.80768 11.4631 8.9689 11.7855 9.29133C12.1079 9.61377 12.2691 10.0038 12.2691 10.4615V15.0769C12.2691 15.3987 12.4002 15.6843 12.6624 15.9337C12.9246 16.183 13.2198 16.3077 13.548 16.3077C13.8929 16.3077 14.1922 16.183 14.4461 15.9337C14.6999 15.6843 14.8269 15.3987 14.8269 15.0769V5.94231H14.5288C14.2711 5.94231 14.056 5.85609 13.8836 5.68366C13.7112 5.51122 13.625 5.29616 13.625 5.03848V3.25003H14.0769V1.94236H14.9615V3.25003H15.8845V1.94236H16.7691V3.25003H17.2211V5.03848C17.2211 5.29616 17.1349 5.51122 16.9624 5.68366C16.79 5.85609 16.5749 5.94231 16.3172 5.94231H16.0191V15.0769C16.0191 15.732 15.7794 16.2997 15.2999 16.7798C14.8204 17.2599 14.2365 17.5 13.548 17.5C12.8762 17.5 12.2964 17.2599 11.8086 16.7798C11.3208 16.2997 11.0769 15.732 11.0769 15.0769V10.4615C11.0769 10.3205 11.0352 10.2083 10.9519 10.125C10.8685 10.0416 10.7563 9.99998 10.6153 9.99998H9.49995V17.5H0.5Z"
            fill="#3C3C3C" />
    </symbol>

    <symbol id="services-toplivo" width="16" height="18" viewBox="0 0 16 18" fill="none"
        xmlns="http://www.w3.org/2000/svg">
        <path
            d="M0.5 17.5V2.30773C0.5 1.8026 0.675 1.37503 1.025 1.02503C1.375 0.675031 1.80257 0.500031 2.3077 0.500031H7.69225C8.19738 0.500031 8.62495 0.675031 8.97495 1.02503C9.32495 1.37503 9.49995 1.8026 9.49995 2.30773V8.80768H10.4615C10.9586 8.80768 11.3841 8.98468 11.7381 9.33868C12.0921 9.6927 12.2692 10.1183 12.2692 10.6154V15.1538C12.2692 15.4756 12.381 15.7484 12.6047 15.9721C12.8285 16.1958 13.1012 16.3077 13.423 16.3077C13.7448 16.3077 14.0176 16.1958 14.2413 15.9721C14.465 15.7484 14.5769 15.4756 14.5769 15.1538V8.14616C14.4269 8.23589 14.2685 8.29807 14.1019 8.33268C13.9352 8.3673 13.7602 8.38461 13.5769 8.38461C12.963 8.38461 12.4442 8.17269 12.0204 7.74886C11.5965 7.32501 11.3846 6.80616 11.3846 6.19233C11.3846 5.69746 11.5256 5.25677 11.8077 4.87023C12.0897 4.48368 12.4628 4.22439 12.9269 4.09236L10.673 1.83848L11.5115 1.00003L15.0768 4.50388C15.3012 4.72823 15.4727 4.98816 15.5913 5.28366C15.7099 5.57916 15.7691 5.88205 15.7691 6.19233V15.1538C15.7691 15.8107 15.5425 16.366 15.0893 16.8196C14.6361 17.2732 14.0813 17.5 13.4249 17.5C12.7685 17.5 12.2131 17.2732 11.7586 16.8196C11.3041 16.366 11.0769 15.8107 11.0769 15.1538V10.3077C11.0769 10.2179 11.048 10.1442 10.9903 10.0865C10.9326 10.0288 10.8589 9.99998 10.7692 9.99998H9.49995V17.5H0.5ZM1.99997 7.25003H7.99997V2.30773C7.99997 2.2308 7.96792 2.16027 7.90382 2.09616C7.83971 2.03206 7.76918 2.00001 7.69225 2.00001H2.3077C2.23077 2.00001 2.16024 2.03206 2.09612 2.09616C2.03202 2.16027 1.99997 2.2308 1.99997 2.30773V7.25003ZM13.5769 7.19233C13.8602 7.19233 14.0977 7.0965 14.2894 6.90483C14.481 6.71316 14.5769 6.47566 14.5769 6.19233C14.5769 5.909 14.481 5.6715 14.2894 5.47983C14.0977 5.28816 13.8602 5.19233 13.5769 5.19233C13.2935 5.19233 13.056 5.28816 12.8644 5.47983C12.6727 5.6715 12.5769 5.909 12.5769 6.19233C12.5769 6.47566 12.6727 6.71316 12.8644 6.90483C13.056 7.0965 13.2935 7.19233 13.5769 7.19233ZM1.99997 16H7.99997V8.74998H1.99997V16Z"
            fill="#3C3C3C" />
    </symbol>

    <symbol id="services-transport" width="22" height="16" viewBox="0 0 22 16" fill="none"
        xmlns="http://www.w3.org/2000/svg">
        <path
            d="M4.84389 15.5577C4.06336 15.5577 3.40066 15.2847 2.85579 14.7388C2.31092 14.1928 2.03849 13.5299 2.03849 12.75H0.346191V2.30773C0.346191 1.8026 0.521191 1.37503 0.871191 1.02503C1.22119 0.675031 1.64875 0.500031 2.15387 0.500031H15.7692V4.30773H18.423L21.6538 8.63466V12.75H19.8462C19.8462 13.5299 19.573 14.1928 19.0266 14.7388C18.4802 15.2847 17.8167 15.5577 17.0362 15.5577C16.2557 15.5577 15.593 15.2847 15.0481 14.7388C14.5032 14.1928 14.2308 13.5299 14.2308 12.75H7.65384C7.65384 13.532 7.38065 14.1955 6.83427 14.7404C6.2879 15.2852 5.62444 15.5577 4.84389 15.5577ZM4.84617 14.0577C5.21283 14.0577 5.52245 13.9314 5.77502 13.6789C6.02758 13.4263 6.15387 13.1167 6.15387 12.75C6.15387 12.3833 6.02758 12.0737 5.77502 11.8211C5.52245 11.5686 5.21283 11.4423 4.84617 11.4423C4.47948 11.4423 4.16986 11.5686 3.91729 11.8211C3.66472 12.0737 3.53844 12.3833 3.53844 12.75C3.53844 13.1167 3.66472 13.4263 3.91729 13.6789C4.16986 13.9314 4.47948 14.0577 4.84617 14.0577ZM1.84617 11.25H2.56924C2.78204 10.8795 3.08941 10.5689 3.49134 10.3183C3.89327 10.0676 4.34488 9.94231 4.84617 9.94231C5.33463 9.94231 5.78303 10.066 6.19137 10.3135C6.5997 10.5609 6.91027 10.8731 7.12309 11.25H14.2693V2.00001H2.15387C2.07695 2.00001 2.00643 2.03206 1.94232 2.09616C1.87822 2.16027 1.84617 2.2308 1.84617 2.30773V11.25ZM17.0385 14.0577C17.4052 14.0577 17.7148 13.9314 17.9673 13.6789C18.2199 13.4263 18.3462 13.1167 18.3462 12.75C18.3462 12.3833 18.2199 12.0737 17.9673 11.8211C17.7148 11.5686 17.4052 11.4423 17.0385 11.4423C16.6718 11.4423 16.3622 11.5686 16.1096 11.8211C15.857 12.0737 15.7308 12.3833 15.7308 12.75C15.7308 13.1167 15.857 13.4263 16.1096 13.6789C16.3622 13.9314 16.6718 14.0577 17.0385 14.0577ZM15.7692 9.25003H20.25L17.6538 5.80768H15.7692V9.25003Z"
            fill="#3C3C3C" />
    </symbol>

    <symbol id="telegram" width="21" height="18" viewBox="0 0 21 18" fill="none"
        xmlns="http://www.w3.org/2000/svg">
        <path
            d="M18.665 0.716942L0.934973 7.55394C-0.275027 8.03994 -0.268027 8.71494 0.712973 9.01594L5.26497 10.4359L15.797 3.79094C16.295 3.48794 16.75 3.65094 16.376 3.98294L7.84297 11.6839H7.84097L7.84297 11.6849L7.52897 16.3769C7.98897 16.3769 8.19197 16.1659 8.44997 15.9169L10.661 13.7669L15.26 17.1639C16.108 17.6309 16.717 17.3909 16.928 16.3789L19.947 2.15094C20.256 0.911942 19.474 0.350942 18.665 0.716942Z"
            fill="white" />
    </symbol>

    <symbol id="vk" width="24" height="14" viewBox="0 0 24 14" fill="none"
        xmlns="http://www.w3.org/2000/svg">
        <path fill-rule="evenodd" clip-rule="evenodd"
            d="M22.7203 1.1875C22.8872 0.65875 22.7203 0.274375 21.982 0.274375H19.5272C18.908 0.274375 18.622 0.610937 18.4552 0.970937C18.4552 0.970937 17.1923 4.04594 15.4289 6.03953C14.857 6.61609 14.595 6.80828 14.2852 6.80828C14.1183 6.80828 13.9036 6.61609 13.9036 6.08781V1.16266C13.9036 0.538281 13.7133 0.25 13.1887 0.25H9.32812C8.94656 0.25 8.70844 0.538281 8.70844 0.826563C8.70844 1.42703 9.59016 1.57141 9.68531 3.25281V6.90625C9.68531 7.69891 9.54469 7.84375 9.2325 7.84375C8.39859 7.84375 6.37313 4.74484 5.15812 1.21375C4.92188 0.514375 4.68188 0.25 4.06219 0.25H1.58391C0.869063 0.25 0.75 0.586094 0.75 0.946563C0.75 1.59531 1.58391 4.86203 4.63406 9.18578C6.65953 12.1389 9.54281 13.7261 12.1402 13.7261C13.7133 13.7261 13.9036 13.3656 13.9036 12.7652V10.5311C13.9036 9.81062 14.0466 9.69062 14.5472 9.69062C14.9044 9.69062 15.548 9.88234 17.0016 11.2998C18.6694 12.9813 18.9553 13.75 19.8848 13.75H22.3392C23.0541 13.75 23.3878 13.3895 23.197 12.693C22.9828 11.9964 22.1723 10.9877 21.1238 9.78672C20.5519 9.11453 19.6941 8.36969 19.432 8.00922C19.0748 7.52875 19.17 7.33656 19.432 6.90438C19.4081 6.90438 22.4109 2.62844 22.7203 1.18563"
            fill="white" />
    </symbol>

    <symbol id="azs-search" width="21" height="22" viewBox="0 0 21 22" fill="none"
        xmlns="http://www.w3.org/2000/svg">
        <path
            d="M13.0565 9.39466e-07C11.6001 -0.000725023 10.1745 0.419299 8.95116 1.20956C7.7278 1.99982 6.75878 3.12666 6.16064 4.45457C5.5625 5.78248 5.3607 7.25492 5.57953 8.69479C5.79835 10.1347 6.42848 11.4807 7.39412 12.5709L0 20.9638L1.0262 21.88L8.40199 13.5238C9.35077 14.2665 10.4633 14.7717 11.6469 14.9972C12.8304 15.2228 14.0508 15.1623 15.2062 14.8206C16.3617 14.479 17.4187 13.8662 18.2893 13.0332C19.1599 12.2003 19.8188 11.1713 20.2112 10.0321C20.6035 8.89292 20.7179 7.67644 20.5449 6.48405C20.3718 5.29167 19.9163 4.15791 19.2163 3.17725C18.5163 2.19658 17.592 1.39742 16.5205 0.846337C15.4491 0.295259 14.2614 0.00822891 13.0565 0.00916342V9.39466e-07ZM13.0565 13.7437C11.4163 13.7437 9.84316 13.0921 8.68331 11.9323C7.52346 10.7724 6.87186 9.19932 6.87186 7.55905C6.87186 5.91877 7.52346 4.34567 8.68331 3.18582C9.84316 2.02597 11.4163 1.37437 13.0565 1.37437C14.6968 1.37437 16.2699 2.02597 17.4298 3.18582C18.5896 4.34567 19.2412 5.91877 19.2412 7.55905C19.2412 9.19932 18.5896 10.7724 17.4298 11.9323C16.2699 13.0921 14.6968 13.7437 13.0565 13.7437Z"
            fill="#111111" />
    </symbol>

    <symbol id="local-cafe" width="23" height="24" viewBox="0 0 23 24" fill="none"
        xmlns="http://www.w3.org/2000/svg">
        <path
            d="M0 23.3331V21.3331H19.9999V23.3331H0ZM4.7564 18.1536C3.44358 18.1536 2.32264 17.6955 1.3936 16.7793C0.464533 15.8631 0 14.7571 0 13.4613V0.666504H20.2051C20.882 0.666504 21.4615 0.901981 21.9435 1.37294C22.4256 1.84387 22.6666 2.41608 22.6666 3.08957V6.57671C22.6666 7.25022 22.4256 7.82244 21.9435 8.29337C21.4615 8.76431 20.882 8.99977 20.2051 8.99977H17.5384V13.4613C17.5384 14.7571 17.0739 15.8631 16.1448 16.7793C15.2158 17.6955 14.0948 18.1536 12.782 18.1536H4.7564ZM4.7564 16.1537H12.782C13.54 16.1537 14.1889 15.8896 14.7287 15.3613C15.2685 14.833 15.5384 14.198 15.5384 13.4562V2.66647H1.99997V13.461C1.99997 14.2031 2.26987 14.8374 2.80967 15.3639C3.34947 15.8904 3.99838 16.1537 4.7564 16.1537ZM17.5384 6.99984H20.2051C20.3333 6.99984 20.4422 6.95924 20.532 6.87804C20.6218 6.79684 20.6666 6.69639 20.6666 6.57671V3.08957C20.6666 2.9699 20.6218 2.86947 20.532 2.78827C20.4422 2.70707 20.3333 2.66647 20.2051 2.66647H17.5384V6.99984ZM4.7564 16.1537H1.99997H15.5384H4.7564Z"
            fill="white" />
    </symbol>

    <symbol id="car-repair" width="22" height="24" viewBox="0 0 22 24" fill="none"
        xmlns="http://www.w3.org/2000/svg">
        <path
            d="M9.73688 24V20.2105H0.894775V17.6842H21.1053V20.2105H12.2632V24H9.73688ZM7.21057 10.7368C7.56846 10.7368 7.86846 10.6158 8.11057 10.3737C8.35267 10.1316 8.47372 9.83158 8.47372 9.47368C8.47372 9.11579 8.35267 8.81579 8.11057 8.57368C7.86846 8.33158 7.56846 8.21053 7.21057 8.21053C6.85267 8.21053 6.55267 8.33158 6.31057 8.57368C6.06846 8.81579 5.94741 9.11579 5.94741 9.47368C5.94741 9.83158 6.06846 10.1316 6.31057 10.3737C6.55267 10.6158 6.85267 10.7368 7.21057 10.7368ZM14.7895 10.7368C15.1474 10.7368 15.4474 10.6158 15.6895 10.3737C15.9316 10.1316 16.0527 9.83158 16.0527 9.47368C16.0527 9.11579 15.9316 8.81579 15.6895 8.57368C15.4474 8.33158 15.1474 8.21053 14.7895 8.21053C14.4316 8.21053 14.1316 8.33158 13.8895 8.57368C13.6474 8.81579 13.5264 9.11579 13.5264 9.47368C13.5264 9.83158 13.6474 10.1316 13.8895 10.3737C14.1316 10.6158 14.4316 10.7368 14.7895 10.7368ZM2.15793 7.07368L4.24214 1.01053C4.34741 0.715789 4.52109 0.473684 4.7632 0.284211C5.0053 0.0947368 5.27372 0 5.56846 0H16.4316C16.7264 0 16.9948 0.0947368 17.2369 0.284211C17.479 0.473684 17.6527 0.715789 17.7579 1.01053L19.8421 7.07368V15.4105C19.8421 15.7053 19.7474 15.9474 19.5579 16.1368C19.3685 16.3263 19.1264 16.4211 18.8316 16.4211H18.3264C18.0316 16.4211 17.7895 16.3263 17.6 16.1368C17.4106 15.9474 17.3158 15.7053 17.3158 15.4105V13.8947H4.68425V15.4105C4.68425 15.7053 4.58951 15.9474 4.40004 16.1368C4.21057 16.3263 3.96846 16.4211 3.67372 16.4211H3.16846C2.87372 16.4211 2.63162 16.3263 2.44214 16.1368C2.25267 15.9474 2.15793 15.7053 2.15793 15.4105V7.07368ZM5.5053 5.05263H16.4948L15.6106 2.52632H6.38951L5.5053 5.05263ZM4.68425 11.3684H17.3158V7.57895H4.68425V11.3684Z"
            fill="white" />
    </symbol>

    <symbol id="wc" width="23" height="26" viewBox="0 0 23 26" fill="none"
        xmlns="http://www.w3.org/2000/svg">
        <path
            d="M2.76929 26.0001V16.3334H0.769287V9.0001C0.769287 8.35223 0.996209 7.80139 1.45005 7.34757C1.9039 6.89372 2.45474 6.6668 3.10259 6.6668H6.89745C7.5453 6.6668 8.09614 6.89372 8.54999 7.34757C9.00383 7.80139 9.23075 8.35223 9.23075 9.0001V16.3334H7.23075V26.0001H2.76929ZM5.00002 5.30777C4.31798 5.30777 3.73721 5.06803 3.25772 4.58857C2.77823 4.10908 2.53849 3.52831 2.53849 2.84627C2.53849 2.16422 2.77823 1.58346 3.25772 1.10397C3.73721 0.624501 4.31798 0.384766 5.00002 0.384766C5.68206 0.384766 6.26283 0.624511 6.74232 1.104C7.22181 1.58349 7.46155 2.16425 7.46155 2.8463C7.46155 3.52834 7.22181 4.10911 6.74232 4.5886C6.26283 5.06807 5.68206 5.3078 5.00002 5.3078V5.30777ZM15.3334 26.0001V18.3334H11.718L14.759 8.236C14.9112 7.73516 15.1919 7.34841 15.6013 7.07577C16.0107 6.80312 16.477 6.6668 17 6.6668C17.5231 6.6668 17.9893 6.80312 18.3987 7.07577C18.8081 7.34841 19.0889 7.73516 19.241 8.236L22.282 18.3334H18.6667V26.0001L15.3334 26.0001ZM17 5.3078C16.318 5.3078 15.7372 5.06807 15.2577 4.5886C14.7782 4.10911 14.5385 3.52834 14.5385 2.8463C14.5385 2.16425 14.7782 1.58349 15.2577 1.104C15.7372 0.624511 16.318 0.384766 17 0.384766C17.6821 0.384766 18.2628 0.624511 18.7423 1.104C19.2218 1.58349 19.4616 2.16425 19.4616 2.8463C19.4616 3.52834 19.2218 4.10911 18.7423 4.5886C18.2628 5.06807 17.6821 5.3078 17 5.3078Z"
            fill="white" />
    </symbol>

    <symbol id="tire-repair" width="28" height="25" viewBox="0 0 28 25" fill="none"
        xmlns="http://www.w3.org/2000/svg">
        <path
            d="M21.8721 7.93581C21.5197 7.93581 21.2222 7.8152 20.9795 7.57398C20.7367 7.33276 20.6154 7.03384 20.6154 6.67724C20.6154 6.50944 20.65 6.34862 20.7192 6.19478C20.7884 6.04093 20.8773 5.90971 20.9859 5.80111C21.2466 5.54049 21.8269 5.25419 22.7269 4.94221L24.0769 4.47428C23.9162 4.95974 23.7581 5.41188 23.6025 5.83068C23.4777 6.18281 23.3366 6.52765 23.1791 6.86521C23.0216 7.20277 22.8798 7.43484 22.7538 7.56144C22.6427 7.67255 22.5094 7.76272 22.354 7.83194C22.1985 7.90119 22.0379 7.93581 21.8721 7.93581ZM3.17662 24.0126C2.51362 24.0126 1.94664 23.7766 1.47569 23.3046C1.00475 22.8326 0.769287 22.2652 0.769287 21.6024V4.32044C0.769287 3.65762 1.00536 3.09021 1.47752 2.61821C1.94968 2.14621 2.51725 1.91021 3.18025 1.91021H10.4132C11.0762 1.91021 11.6432 2.14621 12.1141 2.61821C12.585 3.09021 12.8205 3.65762 12.8205 4.32044V14.8742C13.029 14.7648 13.2573 14.6708 13.5051 14.5922C13.753 14.5136 14.029 14.4742 14.3333 14.4742C15.3091 14.4742 16.1385 14.8158 16.8216 15.4988C17.5046 16.1819 17.8461 17.0113 17.8461 17.987V20.4998C17.8461 20.9285 17.9911 21.2878 18.2812 21.5777C18.5712 21.8677 18.9306 22.0127 19.3594 22.0127C19.7881 22.0127 20.1474 21.8677 20.4372 21.5777C20.7269 21.2878 20.8718 20.9285 20.8718 20.4998V13.9614H19.6154V12.2537C18.4923 11.7682 17.5833 11.0281 16.8885 10.0332C16.1936 9.03834 15.8462 7.9204 15.8462 6.67938C15.8462 5.00589 16.4337 3.58325 17.6087 2.41148C18.7836 1.2397 20.2047 0.653809 21.8718 0.653809C23.5452 0.653809 24.9679 1.2397 26.1397 2.41148C27.3115 3.58325 27.8974 5.00589 27.8974 6.67938C27.8974 7.9204 27.5499 9.03834 26.8551 10.0332C26.1602 11.0281 25.2512 11.7682 24.1281 12.2537V13.9614H22.8717V20.4998C22.8717 21.4756 22.5303 22.305 21.8476 22.9881C21.1649 23.6711 20.3358 24.0126 19.3605 24.0126C18.3851 24.0126 17.5555 23.6711 16.8718 22.9881C16.188 22.305 15.8462 21.4756 15.8462 20.4998V17.987C15.8462 17.5584 15.7011 17.1991 15.4111 16.9091C15.121 16.6192 14.7616 16.4742 14.3329 16.4742C13.9041 16.4742 13.5449 16.6192 13.2551 16.9091C12.9654 17.1991 12.8205 17.5584 12.8205 17.987V21.6024C12.8205 22.2652 12.5844 22.8326 12.1123 23.3046C11.6401 23.7766 11.0725 24.0126 10.4095 24.0126H3.17662ZM21.8733 10.705C22.9919 10.705 23.9423 10.3135 24.7243 9.53044C25.5064 8.7474 25.8974 7.79654 25.8974 6.67788C25.8974 5.55923 25.5059 4.60888 24.7228 3.82681C23.9398 3.04476 22.9889 2.65374 21.8703 2.65374C20.7516 2.65374 19.8012 3.04528 19.0192 3.82834C18.2371 4.61139 17.8461 5.56224 17.8461 6.68091C17.8461 7.79956 18.2376 8.7499 19.0207 9.53194C19.8038 10.314 20.7546 10.705 21.8733 10.705ZM3.17952 22.0127H10.4103C10.5299 22.0127 10.6282 21.9742 10.7052 21.8973C10.7821 21.8203 10.8205 21.722 10.8205 21.6024V18.628L8.30772 21.1408V18.3101L10.8205 15.7973V12.346L8.30772 14.8588V12.0281L10.8205 9.51528V6.06394L8.30772 8.57678V5.74608L10.0283 4.02554C9.99405 3.98281 9.95345 3.9529 9.90645 3.93581C9.85943 3.9187 9.80173 3.91014 9.73335 3.91014H3.85642C3.78804 3.91014 3.73035 3.9187 3.68335 3.93581C3.63633 3.9529 3.59572 3.98281 3.56152 4.02554L5.28205 5.74608V8.57678L2.76925 6.06394V9.51528L5.28205 12.0281V14.8588L2.76925 12.346V15.7973L5.28205 18.3101V21.1408L2.76925 18.628V21.6024C2.76925 21.722 2.80772 21.8203 2.88465 21.8973C2.96156 21.9742 3.05985 22.0127 3.17952 22.0127Z"
            fill="white" />
    </symbol>

    <symbol id="storefront" width="28" height="24" viewBox="0 0 28 24" fill="none"
        xmlns="http://www.w3.org/2000/svg">
        <path
            d="M25.6872 10.6309V21.2565C25.6872 21.93 25.4539 22.5001 24.9872 22.9668C24.5205 23.4334 23.9504 23.6668 23.2769 23.6668H4.76413C4.09064 23.6668 3.52056 23.4334 3.05389 22.9668C2.58722 22.5001 2.35389 21.93 2.35389 21.2565V10.6053C1.81714 10.1642 1.41414 9.592 1.14489 8.8886C0.87567 8.18517 0.870114 7.42577 1.12823 6.6104L2.47696 2.20526C2.65474 1.6446 2.95645 1.19246 3.38209 0.848863C3.80774 0.505285 4.31628 0.333496 4.90773 0.333496H23.1077C23.6992 0.333496 24.2043 0.497598 24.6231 0.825798C25.0419 1.154 25.347 1.60528 25.5385 2.17963L26.9128 6.6104C27.1709 7.42577 27.1654 8.18261 26.8962 8.8809C26.6269 9.57919 26.2239 10.1625 25.6872 10.6309ZM16.9539 9.66683C17.6821 9.66683 18.2295 9.44417 18.5962 8.99886C18.9629 8.55357 19.1129 8.07538 19.0462 7.56426L18.236 2.33343H15.0205V7.60013C15.0205 8.16082 15.2103 8.64544 15.5898 9.054C15.9692 9.46255 16.4239 9.66683 16.9539 9.66683ZM10.9539 9.66683C11.5675 9.66683 12.0654 9.46255 12.4475 9.054C12.8295 8.64544 13.0206 8.16082 13.0206 7.60013V2.33343H9.80513L8.99486 7.61553C8.92308 8.08904 9.0718 8.5493 9.44102 8.9963C9.81027 9.44332 10.3145 9.66683 10.9539 9.66683ZM5.02052 9.66683C5.51455 9.66683 5.93935 9.49461 6.29492 9.15016C6.65048 8.8057 6.87014 8.37279 6.95389 7.85143L7.73852 2.33343H4.90773C4.76241 2.33343 4.64702 2.36548 4.56156 2.4296C4.47607 2.49371 4.41196 2.58987 4.36923 2.7181L3.08719 7.05653C2.9111 7.6292 2.994 8.20741 3.33589 8.79116C3.67778 9.37494 4.23933 9.66683 5.02052 9.66683ZM23.0205 9.66683C23.7419 9.66683 24.294 9.3835 24.677 8.81683C25.0599 8.25014 25.1522 7.66338 24.9539 7.05653L23.6052 2.69243C23.5624 2.56423 23.4983 2.47234 23.4129 2.41676C23.3274 2.36121 23.212 2.33343 23.0667 2.33343H20.3026L21.0872 7.85143C21.1709 8.37279 21.3906 8.8057 21.7462 9.15016C22.1017 9.49461 22.5265 9.66683 23.0205 9.66683ZM4.76413 21.6668H23.2769C23.3966 21.6668 23.4949 21.6284 23.5718 21.5514C23.6488 21.4745 23.6872 21.3762 23.6872 21.2565V11.5488C23.5419 11.6018 23.4206 11.6347 23.3231 11.6475C23.2257 11.6604 23.1248 11.6668 23.0205 11.6668C22.4205 11.6668 21.8927 11.5582 21.4372 11.3411C20.9816 11.124 20.5402 10.7762 20.1129 10.2975C19.7385 10.7146 19.2958 11.0471 18.7847 11.295C18.2735 11.5428 17.6906 11.6668 17.0359 11.6668C16.4701 11.6668 15.9368 11.5492 15.4359 11.3142C14.9351 11.0792 14.4633 10.7403 14.0205 10.2975C13.6086 10.7403 13.1419 11.0792 12.6205 11.3142C12.0992 11.5492 11.571 11.6668 11.0359 11.6668C10.4342 11.6668 9.87011 11.5578 9.34363 11.3399C8.81711 11.1219 8.35386 10.7745 7.95386 10.2975C7.39317 10.8582 6.8765 11.2266 6.40386 11.4027C5.93121 11.5787 5.4701 11.6668 5.02052 11.6668C4.91626 11.6668 4.80857 11.6604 4.69746 11.6475C4.58633 11.6347 4.47179 11.6018 4.35386 11.5488V21.2565C4.35386 21.3762 4.39231 21.4745 4.46923 21.5514C4.54616 21.6284 4.64446 21.6668 4.76413 21.6668Z"
            fill="white" />
    </symbol>

    <symbol id="wifi" width="32" height="22" viewBox="0 0 32 22" fill="none"
        xmlns="http://www.w3.org/2000/svg">
        <path
            d="M16 21.6152C15.2462 21.6152 14.609 21.355 14.0885 20.8345C13.568 20.3139 13.3078 19.6768 13.3078 18.923C13.3078 18.1691 13.568 17.5319 14.0885 17.0115C14.609 16.4909 15.2462 16.2307 16 16.2307C16.7538 16.2307 17.391 16.4909 17.9115 17.0115C18.432 17.5319 18.6923 18.1691 18.6923 18.923C18.6923 19.6768 18.432 20.3139 17.9115 20.8345C17.391 21.355 16.7538 21.6152 16 21.6152ZM8.46668 14.4665L6.38468 12.3435C7.61886 11.1093 9.05588 10.1367 10.6958 9.42555C12.3356 8.71444 14.1044 8.35889 16.0022 8.35889C17.8999 8.35889 19.6679 8.71786 21.3064 9.43582C22.9449 10.1538 24.3812 11.1367 25.6154 12.3845L23.5334 14.4665C22.5556 13.4887 21.4222 12.7221 20.1334 12.1665C18.8445 11.611 17.4667 11.3332 16 11.3332C14.5334 11.3332 13.1556 11.611 11.8667 12.1665C10.5778 12.7221 9.44446 13.4887 8.46668 14.4665ZM2.80002 8.79985L0.718018 6.71785C2.66844 4.74007 4.94621 3.18581 7.55132 2.05505C10.1565 0.924276 12.9727 0.358887 16 0.358887C19.0274 0.358887 21.8436 0.924276 24.4487 2.05505C27.0538 3.18581 29.3316 4.74007 31.282 6.71785L29.2 8.79985C27.4889 7.08874 25.5056 5.74985 23.25 4.78319C20.9945 3.81652 18.5778 3.33319 16 3.33319C13.4222 3.33319 11.0056 3.81652 8.75002 4.78319C6.49446 5.74985 4.51113 7.08874 2.80002 8.79985Z"
            fill="white" />
    </symbol>

    <symbol id="parking" width="17" height="24" viewBox="0 0 17 24" fill="none"
        xmlns="http://www.w3.org/2000/svg">
        <path
            d="M0.666748 23.3331V0.666504H9.33338C11.359 0.666504 13.0876 1.38232 14.5192 2.81394C15.9509 4.24556 16.6667 5.97418 16.6667 7.9998C16.6667 10.0254 15.9509 11.754 14.5192 13.1857C13.0876 14.6173 11.359 15.3331 9.33338 15.3331H4.66668V23.3331H0.666748ZM4.66668 11.3332H9.49748C10.4141 11.3332 11.1989 11.0068 11.8517 10.354C12.5045 9.70123 12.8308 8.91649 12.8308 7.9998C12.8308 7.08312 12.5045 6.29838 11.8517 5.64561C11.1989 4.99283 10.4141 4.66644 9.49748 4.66644H4.66668V11.3332Z"
            fill="white" />
    </symbol>

    <symbol id="ev-station" width="23" height="24" viewBox="0 0 23 24" fill="none"
        xmlns="http://www.w3.org/2000/svg">
        <path
            d="M5.43587 20.7433L8.282 15.9229H6.57687V12.2434L3.71793 17.0639H5.43587V20.7433ZM1.99997 9.6665H9.99997V3.07677C9.99997 2.97419 9.95723 2.88016 9.87177 2.79467C9.78628 2.70921 9.69224 2.66647 9.58967 2.66647H2.41027C2.30769 2.66647 2.21365 2.70921 2.12817 2.79467C2.0427 2.88016 1.99997 2.97419 1.99997 3.07677V9.6665ZM1.99997 21.3331H9.99997V11.6664H1.99997V21.3331ZM0 23.3331V3.07677C0 2.40326 0.233333 1.83317 0.7 1.3665C1.16667 0.899837 1.73676 0.666504 2.41027 0.666504H9.58967C10.2632 0.666504 10.8333 0.899837 11.2999 1.3665C11.7666 1.83317 11.9999 2.40326 11.9999 3.07677V11.7434H13.4871C14.0973 11.7434 14.6174 11.9583 15.0473 12.3882C15.4772 12.8182 15.6922 13.3382 15.6922 13.9485V20.1023C15.6922 20.5314 15.867 20.9122 16.2166 21.2447C16.5661 21.5771 16.9597 21.7434 17.3973 21.7434C17.8572 21.7434 18.2563 21.5771 18.5948 21.2447C18.9333 20.9122 19.1025 20.5314 19.1025 20.1023V7.92287H18.705C18.3615 7.92287 18.0747 7.80792 17.8448 7.57801C17.6149 7.34809 17.4999 7.06135 17.4999 6.71777V4.33317H18.1025V2.5896H19.282V4.33317H20.5127V2.5896H21.6922V4.33317H22.2948V6.71777C22.2948 7.06135 22.1798 7.34809 21.9499 7.57801C21.72 7.80792 21.4332 7.92287 21.0896 7.92287H20.6922V20.1023C20.6922 20.9758 20.3725 21.7327 19.7332 22.3728C19.0939 23.013 18.3153 23.3331 17.3973 23.3331C16.5016 23.3331 15.7286 23.013 15.0781 22.3728C14.4277 21.7327 14.1025 20.9758 14.1025 20.1023V13.9485C14.1025 13.7605 14.0469 13.6109 13.9358 13.4998C13.8247 13.3887 13.6751 13.3331 13.4871 13.3331H11.9999V23.3331H0Z"
            fill="white" />
    </symbol>

    <symbol id="vending-machine" width="32" height="32" viewBox="0 0 32 32" fill="none"
        xmlns="http://www.w3.org/2000/svg">
        <path
            d="M26 2.6258C26 1.3335 26 1.3335 24.6667 1.3335H7.13041C6 1.3335 6 1.3335 6 3.48734V28.4719C6 29.3335 6 29.3335 6.66667 29.3335H25.3333C26 29.3335 26 29.3335 26 28.4884V28.4719V2.6258Z"
            stroke="white" stroke-width="1.5" />
        <rect x="9.33337" y="4" width="10.6667" height="17.3333" rx="0.5" stroke="white"
            stroke-width="1.1" />
        <rect x="9.33337" y="24" width="10.6667" height="2.66667" rx="0.5" stroke="white" />
        <mask id="path-5-inside-1_928_7362" fill="white">
            <rect x="21.3334" y="14.6665" width="2.66667" height="4" rx="0.5" />
        </mask>
        <rect x="21.3334" y="14.6665" width="2.66667" height="4" rx="0.5" stroke="white"
            stroke-width="2.66667" mask="url(#path-5-inside-1_928_7362)" />
        <mask id="path-6-inside-2_928_7362" fill="white">
            <rect x="21.3334" y="29.3335" width="2.66667" height="2.66667" rx="0.5" />
        </mask>
        <rect x="21.3334" y="29.3335" width="2.66667" height="2.66667" rx="0.5" fill="white"
            stroke="white" stroke-width="2.66667" mask="url(#path-6-inside-2_928_7362)" />
        <mask id="path-7-inside-3_928_7362" fill="white">
            <rect x="14" y="5.3335" width="1.33333" height="2.66667" rx="0.1" />
        </mask>
        <rect x="14" y="5.3335" width="1.33333" height="2.66667" rx="0.1" fill="white"
            stroke="white" stroke-width="1.33333" mask="url(#path-7-inside-3_928_7362)" />
        <mask id="path-8-inside-4_928_7362" fill="white">
            <rect x="14" y="9.3335" width="1.33333" height="2.66667" rx="0.1" />
        </mask>
        <rect x="14" y="9.3335" width="1.33333" height="2.66667" rx="0.1" fill="white"
            stroke="white" stroke-width="1.33333" mask="url(#path-8-inside-4_928_7362)" />
        <mask id="path-9-inside-5_928_7362" fill="white">
            <rect x="11.3334" y="9.3335" width="1.33333" height="2.66667" rx="0.1" />
        </mask>
        <rect x="11.3334" y="9.3335" width="1.33333" height="2.66667" rx="0.1" fill="white"
            stroke="white" stroke-width="1.33333" mask="url(#path-9-inside-5_928_7362)" />
        <mask id="path-10-inside-6_928_7362" fill="white">
            <rect x="16.6666" y="5.3335" width="1.33333" height="2.66667" rx="0.1" />
        </mask>
        <rect x="16.6666" y="5.3335" width="1.33333" height="2.66667" rx="0.1" fill="white"
            stroke="white" stroke-width="1.33333" mask="url(#path-10-inside-6_928_7362)" />
        <mask id="path-11-inside-7_928_7362" fill="white">
            <rect x="16.6666" y="9.3335" width="1.33333" height="2.66667" rx="0.1" />
        </mask>
        <rect x="16.6666" y="9.3335" width="1.33333" height="2.66667" rx="0.1" fill="white"
            stroke="white" stroke-width="1.33333" mask="url(#path-11-inside-7_928_7362)" />
        <mask id="path-12-inside-8_928_7362" fill="white">
            <rect x="16.6666" y="13.3335" width="1.33333" height="2.66667" rx="0.1" />
        </mask>
        <rect x="16.6666" y="13.3335" width="1.33333" height="2.66667" rx="0.1" fill="white"
            stroke="white" stroke-width="1.33333" mask="url(#path-12-inside-8_928_7362)" />
        <mask id="path-13-inside-9_928_7362" fill="white">
            <rect x="14" y="13.3335" width="1.33333" height="2.66667" rx="0.1" />
        </mask>
        <rect x="14" y="13.3335" width="1.33333" height="2.66667" rx="0.1" fill="white"
            stroke="white" stroke-width="1.33333" mask="url(#path-13-inside-9_928_7362)" />
        <mask id="path-14-inside-10_928_7362" fill="white">
            <rect x="11.3334" y="13.3335" width="1.33333" height="2.66667" rx="0.1" />
        </mask>
        <rect x="11.3334" y="13.3335" width="1.33333" height="2.66667" rx="0.1" fill="white"
            stroke="white" stroke-width="1.33333" mask="url(#path-14-inside-10_928_7362)" />
        <mask id="path-15-inside-11_928_7362" fill="white">
            <rect x="11.3334" y="17.3335" width="1.33333" height="2.66667" rx="0.1" />
        </mask>
        <rect x="11.3334" y="17.3335" width="1.33333" height="2.66667" rx="0.1" fill="white"
            stroke="white" stroke-width="1.33333" mask="url(#path-15-inside-11_928_7362)" />
        <mask id="path-16-inside-12_928_7362" fill="white">
            <rect x="14" y="17.3335" width="1.33333" height="2.66667" rx="0.1" />
        </mask>
        <rect x="14" y="17.3335" width="1.33333" height="2.66667" rx="0.1" fill="white"
            stroke="white" stroke-width="1.33333" mask="url(#path-16-inside-12_928_7362)" />
        <mask id="path-17-inside-13_928_7362" fill="white">
            <rect x="16.6666" y="17.3335" width="1.33333" height="2.66667" rx="0.1" />
        </mask>
        <rect x="16.6666" y="17.3335" width="1.33333" height="2.66667" rx="0.1" fill="white"
            stroke="white" stroke-width="1.33333" mask="url(#path-17-inside-13_928_7362)" />
        <mask id="path-18-inside-14_928_7362" fill="white">
            <rect x="11.3334" y="5.3335" width="1.33333" height="2.66667" rx="0.1" />
        </mask>
        <rect x="11.3334" y="5.3335" width="1.33333" height="2.66667" rx="0.1" fill="white"
            stroke="white" stroke-width="1.33333" mask="url(#path-18-inside-14_928_7362)" />
        <mask id="path-19-inside-15_928_7362" fill="white">
            <rect x="8" y="29.3335" width="2.66667" height="2.66667" rx="0.5" />
        </mask>
        <rect x="8" y="29.3335" width="2.66667" height="2.66667" rx="0.5" fill="white"
            stroke="white" stroke-width="2.66667" mask="url(#path-19-inside-15_928_7362)" />
        <mask id="path-20-inside-16_928_7362" fill="white">
            <rect x="21.3334" y="9.3335" width="2.66667" height="4" rx="0.5" />
        </mask>
        <rect x="21.3334" y="9.3335" width="2.66667" height="4" rx="0.5" stroke="white"
            stroke-width="2.66667" mask="url(#path-20-inside-16_928_7362)" />
    </symbol>

    <symbol id="hot-dog" width="24" height="24" viewBox="0 0 24 24" fill="none"
        xmlns="http://www.w3.org/2000/svg">
        <path
            d="M22.5956 11.0103C23.5601 9.97603 21.9912 8.0296 21.9912 8.0296L7.97114 22.0274C7.97114 22.0274 10.1109 23.8801 11.0042 22.9221C11.4865 22.405 21.6311 12.0446 22.5956 11.0103Z"
            stroke="white" stroke-width="1.5" />
        <path
            d="M1.75368 13.268C0.789191 14.3023 2.35808 16.2487 2.35808 16.2487L16.3781 2.2509C16.3781 2.2509 14.2383 0.398238 13.345 1.35621C12.8628 1.87335 2.71817 12.2337 1.75368 13.268Z"
            stroke="white" stroke-width="1.5" />
        <rect x="18.1102" y="2.9503" width="4.5" height="21.2463" rx="1.25"
            transform="rotate(45.2518 18.1102 2.9503)" stroke="white" stroke-width="1.5" />
        <path
            d="M7.25269 16.2632C7.25269 16.2632 8.49994 16.4999 9.49994 15.4999C10.4999 14.4999 9.70885 13.307 10.7527 12.2632C11.7965 11.2194 12.588 12.2609 13.4999 11.4999C14.4482 10.7088 13.8887 9.64563 14.7527 8.76319C15.6839 7.81201 16.9999 7.99994 16.9999 7.99994"
            stroke="white" stroke-linecap="round" />
    </symbol>

    <symbol id="vacuum" width="30" height="28" viewBox="0 0 30 28" fill="none"
        xmlns="http://www.w3.org/2000/svg">
        <path
            d="M4.33488 27.9998C3.31679 27.9998 2.4509 27.6435 1.73721 26.9308C1.02357 26.2181 0.666748 25.3527 0.666748 24.3346C0.666748 23.3165 1.02308 22.4507 1.73575 21.737C2.44841 21.0233 3.31379 20.6665 4.33188 20.6665C5.34997 20.6665 6.21585 21.0228 6.92952 21.7355C7.64318 22.4482 8.00001 23.3136 8.00001 24.3316C8.00001 25.3497 7.64368 26.2156 6.93102 26.9293C6.21835 27.6429 5.35297 27.9998 4.33488 27.9998ZM4.33338 25.9998C4.79663 25.9998 5.19023 25.8378 5.51418 25.5139C5.83812 25.1899 6.00008 24.7964 6.00008 24.3331C6.00008 23.8699 5.83812 23.4763 5.51418 23.1523C5.19023 22.8284 4.79663 22.6664 4.33338 22.6664C3.87014 22.6664 3.47654 22.8284 3.15258 23.1523C2.82865 23.4763 2.66668 23.8699 2.66668 24.3331C2.66668 24.7964 2.82865 25.19 3.15258 25.5139C3.47654 25.8379 3.87014 25.9998 4.33338 25.9998ZM4.16672 27.9997C4.40089 27.6852 4.58892 27.3669 4.73078 27.0446C4.87267 26.7224 4.99062 26.3741 5.08462 25.9998H13.4872V16.3331C13.4872 15.5081 13.1935 14.8019 12.6059 14.2144C12.0185 13.6269 11.3122 13.3331 10.4872 13.3331H4.00002V22.0255C3.66157 22.034 3.31799 22.0721 2.96928 22.1396C2.62057 22.2071 2.2975 22.3041 2.00008 22.4306V11.3332H6.00008V6.46647C6.00008 4.84836 6.56213 3.47717 7.68622 2.35291C8.81033 1.22864 10.1813 0.666504 11.7992 0.666504C12.9758 0.666504 14.0475 0.986161 15.0141 1.62547C15.9808 2.26478 16.6915 3.12118 17.1462 4.19467L26.3488 25.9998H29.3334V27.9998H20.6667V25.9998H24.1796L15.3283 5.00494C15.0274 4.29209 14.559 3.72414 13.9231 3.30107C13.2872 2.87798 12.5813 2.66644 11.8054 2.66644C10.7386 2.66644 9.83765 3.03396 9.10258 3.769C8.36754 4.50407 8.00001 5.40323 8.00001 6.46647V11.3332H10.4872C11.8684 11.3332 13.047 11.8212 14.0231 12.7973C14.9992 13.7733 15.4872 14.9519 15.4872 16.3331V27.9998L4.16672 27.9997Z"
            fill="white" />
    </symbol>

    <symbol id="refresh" width="16" height="16" viewBox="0 0 16 16" fill="none"
        xmlns="http://www.w3.org/2000/svg">
        <path
            d="M8 16C5.76667 16 3.875 15.225 2.325 13.675C0.775 12.125 0 10.2333 0 8C0 5.76667 0.775 3.875 2.325 2.325C3.875 0.775 5.76667 0 8 0C9.15 0 10.25 0.2375 11.3 0.7125C12.35 1.1875 13.25 1.86667 14 2.75V0H16V7H9V5H13.2C12.6667 4.06667 11.9375 3.33333 11.0125 2.8C10.0875 2.26667 9.08333 2 8 2C6.33333 2 4.91667 2.58333 3.75 3.75C2.58333 4.91667 2 6.33333 2 8C2 9.66667 2.58333 11.0833 3.75 12.25C4.91667 13.4167 6.33333 14 8 14C9.28333 14 10.4417 13.6333 11.475 12.9C12.5083 12.1667 13.2333 11.2 13.65 10H15.75C15.2833 11.7667 14.3333 13.2083 12.9 14.325C11.4667 15.4417 9.83333 16 8 16Z"
            fill="white" />
    </symbol>

</svg>