<?xml version="1.0" encoding="utf-8"?>
<svg xmlns="http://www.w3.org/2000/svg" xmlns:xlink="http://www.w3.org/1999/xlink">

    <symbol id="search" width="23" height="23" viewBox="0 0 23 23" fill="none"
        xmlns="http://www.w3.org/2000/svg">
        <path
            d="M22.94 21.48L15.33 13.87C16.6015 12.2273 17.1995 10.1619 17.0024 8.09403C16.8053 6.02612 15.8279 4.11094 14.269 2.73802C12.7101 1.36509 10.6867 0.637534 8.61048 0.703321C6.53424 0.769108 4.56102 1.6233 3.09216 3.09216C1.6233 4.56102 0.769108 6.53424 0.703321 8.61048C0.637534 10.6867 1.36509 12.7101 2.73802 14.269C4.11094 15.8279 6.02612 16.8053 8.09403 17.0024C10.1619 17.1995 12.2273 16.6015 13.87 15.33L21.48 22.94L22.94 21.48ZM2.81998 8.89998C2.82393 7.69833 3.18387 6.52479 3.85435 5.52758C4.52483 4.53036 5.47577 3.75419 6.58709 3.29707C7.6984 2.83995 8.92026 2.7224 10.0983 2.95925C11.2764 3.1961 12.3579 3.77674 13.2062 4.62783C14.0545 5.47893 14.6316 6.56231 14.8646 7.74117C15.0976 8.92002 14.976 10.1415 14.5152 11.2513C14.0545 12.3611 13.2752 13.3095 12.2758 13.9767C11.2763 14.6439 10.1016 15 8.89998 15C8.10023 14.9987 7.30857 14.8398 6.5702 14.5326C5.83182 14.2253 5.1612 13.7756 4.59662 13.2092C4.03204 12.6428 3.58456 11.9707 3.27972 11.2313C2.97488 10.4919 2.81866 9.69973 2.81998 8.89998Z"
            fill="#212529" />
    </symbol>

    <symbol id="eye" width="24" height="24" viewBox="0 0 24 24" fill="none"
        xmlns="http://www.w3.org/2000/svg">
        <path
            d="M22.7404 11.4902C22.5904 11.2302 19.0004 4.91016 12.0004 4.91016C5.94043 4.91016 1.50043 11.1402 1.31043 11.4102L0.94043 11.9402L1.26043 12.5102C1.41043 12.7702 5.05043 19.0902 12.0004 19.0902C18.0604 19.0902 22.5004 12.8602 22.6904 12.5902L23.0604 12.0602L22.7404 11.4902ZM12.0004 17.0002C7.37043 17.0002 4.41043 13.4302 3.42043 12.0002C4.57043 10.6402 8.00043 7.00016 12.0004 7.00016C16.6304 7.00016 19.5904 10.5702 20.5804 12.0002C19.4304 13.3602 16.0004 17.0002 12.0004 17.0002Z"
            fill="#212529" />
        <path
            d="M11.9996 8.05078C11.2206 8.06064 10.4619 8.30066 9.8189 8.74065C9.17594 9.18063 8.67744 9.80092 8.38613 10.5235C8.09482 11.2461 8.02369 12.0387 8.1817 12.8016C8.33971 13.5645 8.7198 14.2636 9.27416 14.811C9.82852 15.3585 10.5324 15.7297 11.2972 15.8781C12.062 16.0265 12.8537 15.9455 13.5725 15.6451C14.2914 15.3447 14.9054 14.8384 15.3372 14.19C15.7691 13.5416 15.9995 12.7799 15.9996 12.0008C15.9865 10.9486 15.5592 9.94399 14.8105 9.20462C14.0618 8.46526 13.0519 8.0507 11.9996 8.05078ZM11.9996 13.8908C11.6258 13.8908 11.2604 13.7799 10.9496 13.5723C10.6388 13.3646 10.3965 13.0694 10.2535 12.7241C10.1104 12.3787 10.073 11.9987 10.1459 11.6321C10.2189 11.2654 10.3989 10.9287 10.6632 10.6643C10.9275 10.4 11.2643 10.22 11.6309 10.1471C11.9975 10.0742 12.3775 10.1116 12.7229 10.2546C13.0682 10.3977 13.3634 10.6399 13.5711 10.9508C13.7788 11.2616 13.8896 11.627 13.8896 12.0008C13.8896 12.502 13.6905 12.9828 13.336 13.3372C12.9816 13.6917 12.5009 13.8908 11.9996 13.8908Z"
            fill="#212529" />
    </symbol>

    <symbol id="sun" width="16" height="16" viewBox="0 0 16 16" fill="none"
        xmlns="http://www.w3.org/2000/svg">
        <g clip-path="url(#clip0_2150_26445)">
            <path d="M8 1V2" stroke="#6DCDF6" stroke-width="2" stroke-miterlimit="10"
                stroke-linecap="round" />
            <path d="M8 14V15" stroke="#6DCDF6" stroke-width="2" stroke-miterlimit="10"
                stroke-linecap="round" />
            <path d="M15 8H14" stroke="#6DCDF6" stroke-width="2" stroke-miterlimit="10"
                stroke-linecap="round" />
            <path d="M2 8H1" stroke="#6DCDF6" stroke-width="2" stroke-miterlimit="10"
                stroke-linecap="round" />
            <path d="M13 3L12 4" stroke="#6DCDF6" stroke-width="2" stroke-miterlimit="10"
                stroke-linecap="round" />
            <path d="M13 13L12 12" stroke="#6DCDF6" stroke-width="2" stroke-miterlimit="10"
                stroke-linecap="round" />
            <path d="M4 12L3 13" stroke="#6DCDF6" stroke-width="2" stroke-miterlimit="10"
                stroke-linecap="round" />
            <path d="M4 4L3 3" stroke="#6DCDF6" stroke-width="2" stroke-miterlimit="10"
                stroke-linecap="round" />
            <path
                d="M8 11C9.65685 11 11 9.65685 11 8C11 6.34315 9.65685 5 8 5C6.34315 5 5 6.34315 5 8C5 9.65685 6.34315 11 8 11Z"
                fill="#6DCDF6" stroke="#6DCDF6" stroke-width="1.5" stroke-miterlimit="10" />
        </g>
        <defs>
            <clipPath id="clip0_2150_26445">
                <rect width="16" height="16" fill="white" />
            </clipPath>
        </defs>
    </symbol>

</svg>