<?xml version="1.0" encoding="utf-8"?>
<svg xmlns="http://www.w3.org/2000/svg" xmlns:xlink="http://www.w3.org/1999/xlink">

    <symbol id="search" width="23" height="23" viewBox="0 0 23 23" fill="none"
        xmlns="http://www.w3.org/2000/svg">
        <path
            d="M22.94 21.48L15.33 13.87C16.6015 12.2273 17.1995 10.1619 17.0024 8.09403C16.8053 6.02612 15.8279 4.11094 14.269 2.73802C12.7101 1.36509 10.6867 0.637534 8.61048 0.703321C6.53424 0.769108 4.56102 1.6233 3.09216 3.09216C1.6233 4.56102 0.769108 6.53424 0.703321 8.61048C0.637534 10.6867 1.36509 12.7101 2.73802 14.269C4.11094 15.8279 6.02612 16.8053 8.09403 17.0024C10.1619 17.1995 12.2273 16.6015 13.87 15.33L21.48 22.94L22.94 21.48ZM2.81998 8.89998C2.82393 7.69833 3.18387 6.52479 3.85435 5.52758C4.52483 4.53036 5.47577 3.75419 6.58709 3.29707C7.6984 2.83995 8.92026 2.7224 10.0983 2.95925C11.2764 3.1961 12.3579 3.77674 13.2062 4.62783C14.0545 5.47893 14.6316 6.56231 14.8646 7.74117C15.0976 8.92002 14.976 10.1415 14.5152 11.2513C14.0545 12.3611 13.2752 13.3095 12.2758 13.9767C11.2763 14.6439 10.1016 15 8.89998 15C8.10023 14.9987 7.30857 14.8398 6.5702 14.5326C5.83182 14.2253 5.1612 13.7756 4.59662 13.2092C4.03204 12.6428 3.58456 11.9707 3.27972 11.2313C2.97488 10.4919 2.81866 9.69973 2.81998 8.89998Z"
            fill="#212529" />
    </symbol>

    <symbol id="eye" width="24" height="24" viewBox="0 0 24 24" fill="none"
        xmlns="http://www.w3.org/2000/svg">
        <path
            d="M22.7404 11.4902C22.5904 11.2302 19.0004 4.91016 12.0004 4.91016C5.94043 4.91016 1.50043 11.1402 1.31043 11.4102L0.94043 11.9402L1.26043 12.5102C1.41043 12.7702 5.05043 19.0902 12.0004 19.0902C18.0604 19.0902 22.5004 12.8602 22.6904 12.5902L23.0604 12.0602L22.7404 11.4902ZM12.0004 17.0002C7.37043 17.0002 4.41043 13.4302 3.42043 12.0002C4.57043 10.6402 8.00043 7.00016 12.0004 7.00016C16.6304 7.00016 19.5904 10.5702 20.5804 12.0002C19.4304 13.3602 16.0004 17.0002 12.0004 17.0002Z"
            fill="#212529" />
        <path
            d="M11.9996 8.05078C11.2206 8.06064 10.4619 8.30066 9.8189 8.74065C9.17594 9.18063 8.67744 9.80092 8.38613 10.5235C8.09482 11.2461 8.02369 12.0387 8.1817 12.8016C8.33971 13.5645 8.7198 14.2636 9.27416 14.811C9.82852 15.3585 10.5324 15.7297 11.2972 15.8781C12.062 16.0265 12.8537 15.9455 13.5725 15.6451C14.2914 15.3447 14.9054 14.8384 15.3372 14.19C15.7691 13.5416 15.9995 12.7799 15.9996 12.0008C15.9865 10.9486 15.5592 9.94399 14.8105 9.20462C14.0618 8.46526 13.0519 8.0507 11.9996 8.05078ZM11.9996 13.8908C11.6258 13.8908 11.2604 13.7799 10.9496 13.5723C10.6388 13.3646 10.3965 13.0694 10.2535 12.7241C10.1104 12.3787 10.073 11.9987 10.1459 11.6321C10.2189 11.2654 10.3989 10.9287 10.6632 10.6643C10.9275 10.4 11.2643 10.22 11.6309 10.1471C11.9975 10.0742 12.3775 10.1116 12.7229 10.2546C13.0682 10.3977 13.3634 10.6399 13.5711 10.9508C13.7788 11.2616 13.8896 11.627 13.8896 12.0008C13.8896 12.502 13.6905 12.9828 13.336 13.3372C12.9816 13.6917 12.5009 13.8908 11.9996 13.8908Z"
            fill="#212529" />
    </symbol>

    <symbol id="sun" width="16" height="16" viewBox="0 0 16 16" fill="none"
        xmlns="http://www.w3.org/2000/svg">
        <g clip-path="url(#clip0_2150_26445)">
            <path d="M8 1V2" stroke="#6DCDF6" stroke-width="2" stroke-miterlimit="10"
                stroke-linecap="round" />
            <path d="M8 14V15" stroke="#6DCDF6" stroke-width="2" stroke-miterlimit="10"
                stroke-linecap="round" />
            <path d="M15 8H14" stroke="#6DCDF6" stroke-width="2" stroke-miterlimit="10"
                stroke-linecap="round" />
            <path d="M2 8H1" stroke="#6DCDF6" stroke-width="2" stroke-miterlimit="10"
                stroke-linecap="round" />
            <path d="M13 3L12 4" stroke="#6DCDF6" stroke-width="2" stroke-miterlimit="10"
                stroke-linecap="round" />
            <path d="M13 13L12 12" stroke="#6DCDF6" stroke-width="2" stroke-miterlimit="10"
                stroke-linecap="round" />
            <path d="M4 12L3 13" stroke="#6DCDF6" stroke-width="2" stroke-miterlimit="10"
                stroke-linecap="round" />
            <path d="M4 4L3 3" stroke="#6DCDF6" stroke-width="2" stroke-miterlimit="10"
                stroke-linecap="round" />
            <path
                d="M8 11C9.65685 11 11 9.65685 11 8C11 6.34315 9.65685 5 8 5C6.34315 5 5 6.34315 5 8C5 9.65685 6.34315 11 8 11Z"
                fill="#6DCDF6" stroke="#6DCDF6" stroke-width="1.5" stroke-miterlimit="10" />
        </g>
        <defs>
            <clipPath id="clip0_2150_26445">
                <rect width="16" height="16" fill="white" />
            </clipPath>
        </defs>
    </symbol>

    <symbol id="phone" width="21" height="20" viewBox="0 0 21 20" fill="none"
        xmlns="http://www.w3.org/2000/svg">
        <path
            d="M17.2353 17.9999C15.0421 20.0662 10.015 18.6744 5.98973 14.8662C1.96444 11.058 -0.354948 5.7651 1.8382 3.69021L4.23894 1.41893L8.86893 5.79926L7.16314 7.45576C6.98958 7.6192 6.85187 7.81346 6.7579 8.0274C6.66392 8.24134 6.61555 8.47073 6.61555 8.7024C6.61555 8.93408 6.66392 9.16347 6.7579 9.3774C6.85187 9.59134 6.98958 9.78561 7.16314 9.94905L10.6378 12.9877C10.9894 13.3178 11.4647 13.503 11.96 13.503C12.4553 13.503 12.9306 13.3178 13.2822 12.9877L15.0331 11.3483L19.6631 15.7286L17.2353 17.9999Z"
            stroke="#212529" stroke-width="1.5" stroke-miterlimit="10" stroke-linejoin="round" />
    </symbol>

    <symbol id="letter" width="25" height="24" viewBox="0 0 25 24" fill="none"
        xmlns="http://www.w3.org/2000/svg">
        <g clip-path="url(#clip0_2150_46507)">
            <path
                d="M20.6631 4.36035H3.66309C2.55852 4.36035 1.66309 5.25578 1.66309 6.36035V17.6304C1.66309 18.7349 2.55852 19.6304 3.66309 19.6304H20.6631C21.7677 19.6304 22.6631 18.7349 22.6631 17.6303V6.36035C22.6631 5.25578 21.7677 4.36035 20.6631 4.36035Z"
                stroke="#212529" stroke-width="1.5" stroke-miterlimit="10" stroke-linejoin="round" />
            <path d="M22.6631 6L12.1631 13.91L1.66309 6" stroke="#212529" stroke-width="1.5"
                stroke-miterlimit="10" stroke-linecap="round" stroke-linejoin="round" />
            <path d="M18.8434 4.36035H5.4834" stroke="#212529" stroke-width="1.5"
                stroke-miterlimit="10" />
        </g>
        <defs>
            <clipPath id="clip0_2150_46507">
                <rect width="24" height="24" fill="white" transform="translate(0.163086)" />
            </clipPath>
        </defs>
    </symbol>

    <symbol id="stop" width="25" height="24" viewBox="0 0 25 24" fill="none"
        xmlns="http://www.w3.org/2000/svg">
        <path
            d="M12.1631 22C17.6859 22 22.1631 17.5228 22.1631 12C22.1631 6.47715 17.6859 2 12.1631 2C6.64024 2 2.16309 6.47715 2.16309 12C2.16309 17.5228 6.64024 22 12.1631 22Z"
            stroke="#212529" stroke-width="1.5" stroke-miterlimit="10" />
        <rect x="19.7373" y="18.8193" width="1.5" height="20.2971" rx="0.75"
            transform="rotate(135 19.7373 18.8193)" fill="#212529" />
    </symbol>

    <symbol id="youtube" width="22" height="16" viewBox="0 0 22 16" fill="none"
        xmlns="http://www.w3.org/2000/svg">
        <path
            d="M22 5.71047C22.0495 4.27913 21.7365 2.85849 21.09 1.58047C20.6514 1.05607 20.0427 0.702182 19.37 0.580472C16.5875 0.327998 13.7936 0.224516 11 0.270472C8.21667 0.222431 5.43274 0.322573 2.66003 0.570473C2.11185 0.670189 1.60454 0.927314 1.20003 1.31047C0.300027 2.14047 0.200027 3.56047 0.100027 4.76047C-0.045061 6.91804 -0.045061 9.08291 0.100027 11.2405C0.128957 11.9159 0.229521 12.5863 0.400027 13.2405C0.520602 13.7455 0.76455 14.2128 1.11003 14.6005C1.51729 15.0039 2.03641 15.2757 2.60003 15.3805C4.75594 15.6466 6.92824 15.7569 9.10003 15.7105C12.6 15.7605 15.67 15.7105 19.3 15.4305C19.8775 15.3321 20.4112 15.06 20.83 14.6505C21.11 14.3704 21.3191 14.0276 21.44 13.6505C21.7977 12.5531 21.9733 11.4046 21.96 10.2505C22 9.69047 22 6.31047 22 5.71047ZM8.74003 10.8505V4.66047L14.66 7.77047C13 8.69047 10.81 9.73047 8.74003 10.8505Z"
            fill="#002159" />
    </symbol>

    <symbol id="vk" fill="none"
        xmlns="http://www.w3.org/2000/svg">
        <path
            d="M13.0729 0H6.9375C1.33331 0 0 1.33331 0 6.92706V13.0625C0 18.6666 1.32294 20 6.92706 20H13.0625C18.6667 20 20 18.6771 20 13.0729V6.9375C20 1.33331 18.6771 0 13.0729 0ZM16.1458 14.2708H14.6875C14.1354 14.2708 13.9688 13.8229 12.9792 12.8333C12.1146 12 11.75 11.8958 11.5312 11.8958C11.2292 11.8958 11.1458 11.9791 11.1458 12.3958V13.7083C11.1458 14.0625 11.0312 14.2708 10.1042 14.2708C9.20458 14.2104 8.33219 13.9371 7.55888 13.4735C6.78557 13.0098 6.13346 12.3691 5.65625 11.6041C4.52336 10.194 3.73511 8.53906 3.35419 6.77081C3.35419 6.55206 3.4375 6.35413 3.85419 6.35413H5.3125C5.6875 6.35413 5.82294 6.52081 5.96875 6.90625C6.67706 8.98956 7.88544 10.8021 8.375 10.8021C8.5625 10.8021 8.64581 10.7188 8.64581 10.25V8.10413C8.58331 7.125 8.0625 7.04163 8.0625 6.6875C8.06936 6.59407 8.11236 6.50699 8.18237 6.44475C8.25239 6.3825 8.34391 6.35 8.4375 6.35413H10.7292C11.0417 6.35413 11.1458 6.51038 11.1458 6.88538V9.78125C11.1458 10.0938 11.2812 10.1979 11.375 10.1979C11.5625 10.1979 11.7083 10.0938 12.0521 9.75C12.7907 8.84918 13.3943 7.84559 13.8438 6.77081C13.8896 6.64149 13.9766 6.53074 14.0913 6.4555C14.2061 6.38025 14.3423 6.34465 14.4792 6.35413H15.9375C16.375 6.35413 16.4688 6.57288 16.375 6.88538C15.8444 8.07369 15.1878 9.20168 14.4167 10.25C14.2604 10.4896 14.1979 10.6146 14.4167 10.8958C14.5625 11.1146 15.0729 11.5416 15.4167 11.9479C15.9167 12.4466 16.3318 13.0237 16.6458 13.6562C16.7708 14.0625 16.5625 14.2708 16.1458 14.2708Z"
            fill="#002159" />
    </symbol>

    <symbol id="telegram" width="20" height="20" viewBox="0 0 20 20" fill="none"
        xmlns="http://www.w3.org/2000/svg">
        <path
            d="M9.99415 3.44539e-08C8.01633 3.44539e-08 6.08293 0.58649 4.43844 1.6853C2.79395 2.78412 1.51223 4.3459 0.75535 6.17317C-0.00152653 8.00043 -0.19956 10.0111 0.186292 11.9509C0.572145 13.8907 1.52455 15.6725 2.92308 17.0711C4.3216 18.4696 6.10343 19.422 8.04324 19.8079C9.98305 20.1937 11.9937 19.9957 13.821 19.2388C15.6482 18.4819 17.21 17.2002 18.3088 15.5557C19.4077 13.9112 19.9941 11.9778 19.9941 10C19.9943 8.68675 19.7357 7.38634 19.2332 6.17304C18.7307 4.95973 17.9941 3.8573 17.0655 2.92869C16.1368 2.00008 15.0344 1.26349 13.8211 0.760983C12.6078 0.258474 11.3074 -0.000108979 9.99415 3.44539e-08ZM13.1737 15.1525C13.1362 15.2458 13.0793 15.33 13.0066 15.3996C12.934 15.4691 12.8473 15.5223 12.7524 15.5556C12.6575 15.5889 12.5566 15.6015 12.4565 15.5926C12.3563 15.5837 12.2592 15.5535 12.1717 15.504L9.45699 13.3946L7.71466 15.002C7.67424 15.0319 7.62695 15.0511 7.57714 15.0579C7.52734 15.0647 7.47662 15.0589 7.42967 15.0409L7.76366 12.0525L7.77436 12.061L7.78118 12.002C7.78118 12.002 12.6662 7.55445 12.8652 7.36496C13.0667 7.17596 13.0002 7.13496 13.0002 7.13496C13.0117 6.90443 12.6387 7.13496 12.6387 7.13496L6.16614 11.299L3.47066 10.381C3.47066 10.381 3.05666 10.2325 3.01766 9.906C2.97666 9.582 3.48415 9.406 3.48415 9.406L14.2011 5.14849C14.2011 5.14849 15.0821 4.75597 15.0821 5.406L13.1737 15.1525Z"
            fill="#002159" />
    </symbol>

    <symbol id="sit-icon" width="19" height="15" viewBox="0 0 20 20" fill="none"
        xmlns="http://www.w3.org/2000/svg">
        <path id="Vector"
            d="M3.58 3.41C2.8 2.62 2.8 1.36 3.58 0.58C4.37 -0.21 5.63 -0.21 6.41 0.58C7.2 1.36 7.2 2.62 6.41 3.41C5.62 4.2 4.37 4.2 3.58 3.41ZM2 14L2 5L0 5L0 14C0 15.32 0.52 16.59 1.46 17.53C2.4 18.47 3.67 19 5 19L11 19L11 17L5 17C4.2 17 3.44 16.68 2.87 16.12C2.31 15.55 2 14.79 2 14ZM16 18.07L10.92 13L7.5 13L7.5 9.32C8.9 10.46 11.09 11.5 13 11.5L13 9.32C11.33 9.33 9.38 8.45 8.33 7.28L6.92 5.73C6.74 5.5 6.5 5.35 6.24 5.23C5.95 5.08 5.62 5 5.28 5L5.25 5C4 5 3 6 3 7.25L3 13C3 13.79 3.31 14.55 3.87 15.12C4.44 15.68 5.2 16 6 16L11.07 16L14.57 19.5L16 18.07Z"
            fill="#003DA5" fill-opacity="1.000000" fill-rule="nonzero" />
    </symbol>
    <symbol id="speed-icon" width="16" height="20" viewBox="0 0 20 20" fill="none"
        xmlns="http://www.w3.org/2000/svg">
        <path id="Vector"
            d="M17.37 3.57L16.15 5.41C16.74 6.6 17.03 7.91 16.99 9.23C16.95 10.56 16.59 11.85 15.92 13L2.07 13C1.21 11.5 0.85 9.78 1.05 8.07C1.25 6.36 2 4.76 3.17 3.51C4.35 2.26 5.91 1.42 7.6 1.12C9.29 0.82 11.04 1.08 12.58 1.85L14.42 0.62C12.54 -0.59 10.31 -1.13 8.08 -0.92C5.85 -0.71 3.76 0.24 2.14 1.78C0.52 3.33 -0.54 5.37 -0.87 7.58C-1.19 9.79 -0.76 12.05 0.35 14C0.52 14.3 0.77 14.55 1.07 14.72C1.37 14.9 1.72 14.99 2.07 15L15.91 15C16.27 15 16.61 14.91 16.92 14.73C17.23 14.55 17.48 14.3 17.66 14C18.58 12.4 19.04 10.58 18.99 8.74C18.94 6.89 18.39 5.1 17.39 3.56L17.37 3.57ZM7.58 10.41C7.77 10.59 7.99 10.74 8.23 10.84C8.48 10.94 8.74 10.99 9 10.99C9.26 10.99 9.52 10.94 9.77 10.84C10.01 10.74 10.23 10.59 10.41 10.41L16.08 1.91L7.58 7.58C7.4 7.76 7.25 7.98 7.15 8.22C7.05 8.47 7 8.73 7 8.99C7 9.25 7.05 9.51 7.15 9.76C7.25 10 7.4 10.22 7.58 10.41Z"
            fill="#003DA5" fill-opacity="1.000000" fill-rule="nonzero" />
    </symbol>
    <symbol id="geo-icon" width="20" height="22" viewBox="0 0 20 20" fill="none"
        xmlns="http://www.w3.org/2000/svg">
        <path id="Vector"
            d="M7.97 6.97C8.46 6.48 8.79 5.86 8.93 5.18C9.06 4.5 8.99 3.8 8.73 3.16C8.46 2.52 8.02 1.97 7.44 1.58C6.86 1.2 6.19 1 5.5 1C4.8 1 4.13 1.2 3.55 1.58C2.97 1.97 2.53 2.52 2.26 3.16C2 3.8 1.93 4.5 2.06 5.18C2.2 5.86 2.53 6.48 3.02 6.97L5.5 9.45L7.97 6.97ZM5.5 12.27L1.61 8.38C0.84 7.62 0.31 6.64 0.1 5.57C-0.11 4.5 0 3.4 0.41 2.39C0.83 1.39 1.54 0.53 2.44 -0.08C3.34 -0.68 4.41 -1 5.5 -1C6.58 -1 7.65 -0.68 8.55 -0.08C9.45 0.53 10.16 1.39 10.58 2.39C10.99 3.4 11.1 4.5 10.89 5.57C10.68 6.64 10.15 7.62 9.38 8.38L5.5 12.28L5.5 12.27ZM5.5 6C5.1 6 4.72 5.84 4.43 5.56C4.15 5.27 4 4.89 4 4.5C4 4.1 4.15 3.72 4.43 3.43C4.72 3.15 5.1 3 5.5 3C5.89 3 6.27 3.15 6.56 3.43C6.84 3.72 7 4.1 7 4.5C7 4.89 6.84 5.27 6.56 5.56C6.27 5.84 5.89 6 5.5 6ZM14.5 18.45L16.97 15.97C17.46 15.48 17.79 14.86 17.93 14.18C18.06 13.5 17.99 12.8 17.73 12.16C17.46 11.52 17.02 10.97 16.44 10.58C15.86 10.2 15.19 10 14.5 10C13.8 10 13.13 10.2 12.55 10.58C11.97 10.97 11.53 11.52 11.26 12.16C11 12.8 10.93 13.5 11.06 14.18C11.2 14.86 11.53 15.48 12.02 15.97L14.5 18.45ZM18.38 17.38L14.5 21.27L10.61 17.38C9.84 16.62 9.31 15.63 9.1 14.57C8.89 13.5 9 12.4 9.41 11.39C9.83 10.39 10.54 9.53 11.44 8.92C12.34 8.32 13.41 8 14.5 8C15.58 8 16.65 8.32 17.55 8.92C18.45 9.53 19.16 10.39 19.58 11.39C19.99 12.4 20.1 13.5 19.89 14.57C19.68 15.63 19.15 16.62 18.38 17.38ZM14.5 15C14.1 15 13.72 14.84 13.43 14.56C13.15 14.27 13 13.89 13 13.5C13 13.1 13.15 12.72 13.43 12.43C13.72 12.15 14.1 12 14.5 12C14.89 12 15.27 12.15 15.56 12.43C15.84 12.72 16 13.1 16 13.5C16 13.89 15.84 14.27 15.56 14.56C15.27 14.84 14.89 15 14.5 15Z"
            fill="#003DA5" fill-opacity="1.000000" fill-rule="nonzero" />
    </symbol>

    <symbol id="email-icon" width="24.000000" height="24.000000" viewBox="0 0 24 24" fill="none"
        xmlns="http://www.w3.org/2000/svg" xmlns:xlink="http://www.w3.org/1999/xlink">
        <desc>
            Created with Pixso.
        </desc>
        <defs>
            <clipPath id="clip2083_76245">
                <rect id="icon-24" width="24.000000" height="24.000000" fill="white"
                    fill-opacity="0" />
            </clipPath>
        </defs>
        <g clip-path="url(#clip2083_76245)">
            <path id="Vector"
                d="M3.5 4.35L20.5 4.35C21.6 4.35 22.5 5.25 22.5 6.35L22.5 17.62C22.5 18.73 21.6 19.62 20.5 19.62L3.5 19.62C2.39 19.62 1.5 18.73 1.5 17.62L1.5 6.35C1.5 5.25 2.39 4.35 3.5 4.35Z"
                fill="#6AB3E7" fill-opacity="1.000000" fill-rule="evenodd" />
            <path id="Vector"
                d="M20.5 4.35C21.6 4.35 22.5 5.25 22.5 6.35L22.5 17.62C22.5 18.73 21.6 19.62 20.5 19.62L3.5 19.62C2.39 19.62 1.5 18.73 1.5 17.62L1.5 6.35C1.5 5.25 2.39 4.35 3.5 4.35L20.5 4.35Z"
                stroke="#6AB3E7" stroke-opacity="1.000000" stroke-width="1.500000"
                stroke-linejoin="round" />
            <path id="Vector" d="M22.5 6L12 13.91L1.5 6" stroke="#DEF4FD" stroke-opacity="1.000000"
                stroke-width="1.500000" stroke-linejoin="round" stroke-linecap="round" />
            <path id="Vector" d="M18.67 4.35L5.31 4.35" stroke="#6AB3E7" stroke-opacity="1.000000"
                stroke-width="1.500000" stroke-linecap="round" />
        </g>
    </symbol>

    <symbol id="tel-icon" width="20.000000" height="19.000000" viewBox="0 0 20 19" fill="none"
        xmlns="http://www.w3.org/2000/svg" xmlns:xlink="http://www.w3.org/1999/xlink">
        <desc>
            Created with Pixso.
        </desc>
        <defs />
        <path id="Vector"
            d="M16.07 17C13.87 19.06 8.85 17.67 4.82 13.86C0.8 10.05 -1.52 4.76 0.67 2.69L3.07 0.41L7.7 4.79L6 6.45C5.82 6.61 5.68 6.81 5.59 7.02C5.5 7.24 5.45 7.47 5.45 7.7C5.45 7.93 5.5 8.16 5.59 8.37C5.68 8.59 5.82 8.78 6 8.94L9.47 11.98C9.82 12.31 10.3 12.5 10.79 12.5C11.29 12.5 11.76 12.31 12.11 11.98L13.87 10.34L18.5 14.72L16.07 17Z"
            fill="#6AB3E7" fill-opacity="1.000000" fill-rule="nonzero" />
        <path id="Vector"
            d="M4.82 13.86C0.8 10.05 -1.52 4.76 0.67 2.69L3.07 0.41L7.7 4.79L6 6.45C5.82 6.61 5.68 6.81 5.59 7.02C5.5 7.24 5.45 7.47 5.45 7.7C5.45 7.93 5.5 8.16 5.59 8.37C5.68 8.59 5.82 8.78 6 8.94L9.47 11.98C9.82 12.31 10.3 12.5 10.79 12.5C11.29 12.5 11.76 12.31 12.11 11.98L13.87 10.34L18.5 14.72L16.07 17C13.87 19.06 8.85 17.67 4.82 13.86Z"
            stroke="#6AB3E7" stroke-opacity="1.000000" stroke-width="1.500000"
            stroke-linejoin="round" />
    </symbol>
    <symbol id="search-mobile" width="24" height="24" viewBox="0 0 24 24" fill="none"
        xmlns="http://www.w3.org/2000/svg">
        <path
            d="M10.875 18.75C15.2242 18.75 18.75 15.2242 18.75 10.875C18.75 6.52576 15.2242 3 10.875 3C6.52576 3 3 6.52576 3 10.875C3 15.2242 6.52576 18.75 10.875 18.75Z"
            stroke="#212529" stroke-linecap="round" stroke-linejoin="round" />
        <path d="M16.4443 16.4438L21.0006 21.0001" stroke="#212529" stroke-linecap="round"
            stroke-linejoin="round" />
    </symbol>
    <symbol id="pdf-icon" width="27.000000" height="32.000000" viewBox="0 0 27 32" fill="none"
        xmlns="http://www.w3.org/2000/svg" xmlns:xlink="http://www.w3.org/1999/xlink">

        <defs>
            <clipPath id="clip17_8485">
                <rect id="icon" width="27.000000" height="32.000000" fill="white" fill-opacity="0" />
            </clipPath>
        </defs>
        <rect id="icon" width="27.000000" height="32.000000" fill="#FFFFFF" fill-opacity="0" />
        <g clip-path="url(#clip17_8485)">
            <path id="Vector"
                d="M25.25 32L4.57 32C3.61 32 2.82 31.21 2.82 30.26L2.82 1.73C2.82 0.78 3.61 0 4.57 0L19.79 0C19.86 0 19.93 0.02 19.99 0.04L20.03 0.06L20.08 0.1C20.14 0.18 22.51 2.85 23.53 4C24.37 4.95 25.22 5.9 25.84 6.61C26.93 7.83 26.93 7.83 26.95 7.9L26.95 7.91C26.97 7.95 26.97 8.01 26.97 8.05L26.97 30.24C26.99 31.21 26.22 32 25.25 32ZM4.57 0.68C3.99 0.68 3.51 1.15 3.51 1.73L3.51 30.24C3.51 30.82 3.98 31.3 4.57 31.3L25.25 31.3C25.83 31.3 26.31 30.83 26.31 30.24L26.31 8.17C25.59 7.36 20.44 1.54 19.67 0.69L4.57 0.69L4.57 0.68Z"
                fill="#DBDBDB" fill-opacity="1.000000" fill-rule="nonzero" />
            <path id="Vector"
                d="M26.66 8.06L26.66 30.25C26.66 31.03 26.02 31.66 25.25 31.66L4.57 31.66C3.79 31.66 3.16 31.03 3.16 30.25L3.16 1.73C3.16 0.96 3.79 0.33 4.57 0.33L19.8 0.33C19.81 0.33 19.82 0.33 19.83 0.34C19.94 0.46 26.65 8.03 26.65 8.03C26.66 8.04 26.66 8.05 26.66 8.06Z"
                fill="#FFFFFF" fill-opacity="1.000000" fill-rule="evenodd" />
            <path id="Vector"
                d="M26.72 8.04L21.2 8.04C20.45 8.04 19.83 7.43 19.83 6.67L19.83 0.28C19.95 0.4 26.72 8.03 26.72 8.04ZM6.58 13.46L23.24 13.46L23.24 14.65L6.58 14.65L6.58 13.46ZM6.58 16.52L23.24 16.52L23.24 17.72L6.58 17.72L6.58 16.52ZM6.58 19.59L23.24 19.59L23.24 20.79L6.58 20.79L6.58 19.59ZM6.58 22.66L23.24 22.66L23.24 23.85L6.58 23.85L6.58 22.66ZM6.58 25.72L23.24 25.72L23.24 26.92L6.58 26.92L6.58 25.72Z"
                fill="#DBDBDB" fill-opacity="1.000000" fill-rule="nonzero" />
            <path id="Vector" d="M0 10.85L2.82 13.88L2.82 10.85L0 10.85Z" fill="#BF0706"
                fill-opacity="1.000000" fill-rule="nonzero" />
            <path id="Vector"
                d="M16.06 10.85L0 10.85L0 2.95L16.06 2.95C16.31 2.95 16.51 3.15 16.51 3.4L16.51 10.4C16.51 10.65 16.3 10.85 16.06 10.85Z"
                fill="#F93332" fill-opacity="1.000000" fill-rule="nonzero" />
            <path id="PDF"
                d="M3.42 8.72L3.42 4.6L4.68 4.6Q5.37 4.6 5.76 4.89Q5.87 4.97 5.95 5.07Q6.15 5.33 6.15 5.75Q6.15 6.16 5.96 6.42Q5.87 6.54 5.74 6.63Q5.33 6.91 4.65 6.91L3.99 6.91L3.99 8.72L3.42 8.72ZM6.89 8.72L6.89 4.6L8.31 4.6C8.58 4.6 8.85 4.64 9.1 4.73Q9.27 4.78 9.44 4.86L9.44 4.86L9.44 4.86Q9.63 4.95 9.81 5.08C10.03 5.24 10.21 5.46 10.34 5.73Q10.54 6.14 10.54 6.66Q10.54 7.17 10.34 7.58C10.21 7.85 10.03 8.07 9.81 8.23C9.6 8.39 9.36 8.51 9.1 8.59C8.84 8.68 8.58 8.72 8.31 8.72L6.89 8.72ZM11.91 8.72L11.91 6.88L13.78 6.88L13.78 6.39L11.91 6.39L11.91 5.11L13.91 5.11L13.91 4.6L11.33 4.6L11.33 8.72L11.91 8.72ZM3.99 5.09L3.99 6.42L4.61 6.42Q5.25 6.42 5.47 6.12Q5.57 5.97 5.57 5.75Q5.57 5.54 5.47 5.39Q5.26 5.09 4.62 5.09L3.99 5.09ZM7.47 5.1L7.47 8.22L8.19 8.22C8.7 8.22 9.11 8.08 9.43 7.8Q9.59 7.66 9.7 7.49Q9.92 7.15 9.92 6.66Q9.92 6.12 9.66 5.75Q9.57 5.62 9.44 5.51Q9.39 5.47 9.34 5.43L9.34 5.43Q8.88 5.1 8.19 5.1L7.47 5.1Z"
                fill="#FFFFFF" fill-opacity="1.000000" fill-rule="evenodd" />
        </g>
    </symbol>

    <symbol id="main-banner-layer" width="1438" height="500" viewBox="0 0 1438 500" fill="none"
        xmlns="http://www.w3.org/2000/svg">
        <path
            d="M847.818 351.923C847.818 351.923 842.068 290.354 842.068 207.002C842.068 123.65 840.979 -1.37695 840.979 -1.37695H833.149C833.149 -1.37695 833.36 125.317 833.36 207.002C833.36 288.687 827.549 351.923 827.549 351.923C826.393 372.511 816.701 388.564 802.884 389.381C802.884 389.381 715.809 395.377 590.639 395.377C465.469 395.377 0.707031 393.665 0.707031 393.665V407.178C0.707031 407.178 446.966 410.38 590.639 410.38C734.313 410.38 802.884 418.312 802.884 418.312C815.422 419.038 826.944 432.461 829.5 450.781C832.057 469.102 830.32 464.733 831.5 473.727C832.681 482.721 834 618.12 834 618.12H841C841 618.12 842.341 482.72 843.5 473.727C844.66 464.734 843.173 467.059 845.444 450.781C848 432.461 858.652 419.038 871.19 418.312C871.19 418.312 913.904 412.047 962.884 412.047C1011.86 412.047 1440.71 410.38 1440.71 410.38V397.044C1440.71 397.044 1012.95 395.377 962.884 395.377C912.816 395.377 874.112 389.381 874.112 389.381C860.295 388.564 849.035 372.511 847.879 351.923"
            fill="white" />
    </symbol>

    <symbol id="chevron" width="11" height="18" viewBox="0 0 11 18" fill="none"
        xmlns="http://www.w3.org/2000/svg">
        <path
            d="M9.21984 17.6106L0.589844 8.98062L9.17984 0.390625L10.6398 1.85062L3.49984 8.98062L10.6798 16.1506L9.21984 17.6106Z"
            fill="white" />
    </symbol>
</svg>