<svg width="55" height="38" viewBox="0 0 55 38" fill="none" xmlns="http://www.w3.org/2000/svg">
<path d="M6.30256 4.93066L0 10.5189V13.0829L5.25213 11.1106L9.25689 4.93066H6.30256Z" fill="#6DCDF6"/>
<path d="M0 13.0837L0.590865 16.2394L5.25213 11.1113L0 13.0837Z" fill="#44ACE1"/>
<path d="M11.6862 2.82715L6.30273 4.93096H9.25706L11.6862 2.82715Z" fill="#007AC1"/>
<path d="M9.25671 4.93066L5.25195 11.1106L14.3775 8.08638L9.25671 4.93066Z" fill="#007AC1"/>
<path d="M27.1144 8.8101L14.3779 8.08691L18.0544 13.0835L27.1144 8.8101Z" fill="#007AC1"/>
<path d="M7.87802 18.1455L0.918945 18.2113L8.8628 20.841L7.87802 18.1455Z" fill="#6DCDF6"/>
<path d="M5.25209 11.1113L0.59082 16.2394L0.919079 18.2117L7.87816 18.146L5.25209 11.1113Z" fill="#007AC1"/>
<path d="M14.3775 8.08691L5.25195 11.1111L7.87802 18.1458L18.054 13.0835L14.3775 8.08691Z" fill="#6DCDF6"/>
<path d="M18.0544 13.084L17.8574 21.6307L27.1143 21.565V19.6584L18.0544 13.084Z" fill="#007AC1"/>
<path d="M18.0539 13.084L7.87793 18.1463L8.8627 20.8418L17.857 21.6307L18.0539 13.084Z" fill="#44ACE1"/>
<path d="M27.1136 19.6574L36.1079 13.0829L27.1136 8.80957L18.0537 13.0829L27.1136 19.6574Z" fill="#6DCDF6"/>
<path d="M14.3777 8.08653L27.1141 8.80972L39.7849 8.08653L44.9057 4.93081L42.4766 2.827L27.1141 0L11.6859 2.827L9.25684 4.93081L14.3777 8.08653Z" fill="#44ACE1"/>
<path d="M0.918945 18.2109L15.8219 29.4532L8.8628 20.8407L0.918945 18.2109Z" fill="#44ACE1"/>
<path d="M8.86328 20.8408L24.4227 33.398L17.8576 21.6298L8.86328 20.8408Z" fill="#6DCDF6"/>
<path d="M17.8574 21.6292L24.4226 33.3974L27.1143 21.5635L17.8574 21.6292Z" fill="#44ACE1"/>
<path d="M47.8596 4.93066H44.9053L48.91 11.1106L54.1622 13.0829V10.5189L47.8596 4.93066Z" fill="#6DCDF6"/>
<path d="M53.5714 16.2394L54.1623 13.0837L48.9102 11.1113L53.5714 16.2394Z" fill="#007AC1"/>
<path d="M47.86 4.93096L42.4766 2.82715L44.9057 4.93096H47.86Z" fill="#007AC1"/>
<path d="M48.9107 11.1106L44.906 4.93066L39.7852 8.08638L48.9107 11.1106Z" fill="#007AC1"/>
<path d="M39.785 8.08691L27.1143 8.8101L36.1085 13.0835L39.785 8.08691Z" fill="#007AC1"/>
<path d="M45.2998 20.841L53.2437 18.2113L46.2846 18.1455L45.2998 20.841Z" fill="#6DCDF6"/>
<path d="M46.2842 18.146L53.2433 18.2117L53.5715 16.2394L48.9102 11.1113L46.2842 18.146Z" fill="#44ACE1"/>
<path d="M36.1084 13.0835L46.2844 18.1458L48.9105 11.1111L39.7849 8.08691L36.1084 13.0835Z" fill="#6DCDF6"/>
<path d="M27.1143 21.565L36.3055 21.6307L36.1085 13.084L27.1143 19.6584V21.565Z" fill="#44ACE1"/>
<path d="M36.3054 21.6307L45.2996 20.8418L46.2844 18.1463L36.1084 13.084L36.3054 21.6307Z" fill="#007AC1"/>
<path d="M38.3408 29.4532L53.2437 18.2109L45.2999 20.8407L38.3408 29.4532Z" fill="#44ACE1"/>
<path d="M29.7405 33.398L27.1144 21.564L24.4227 33.398L8.86328 20.8408L15.8224 29.4533L27.1144 38.0001L38.3409 29.4533L45.3 20.8408L29.7405 33.398Z" fill="#007AC1"/>
<path d="M29.7402 33.398L45.2997 20.8408L36.3054 21.6298L29.7402 33.398Z" fill="#44ACE1"/>
<path d="M27.1143 21.5635L29.7403 33.3974L36.3055 21.6292L27.1143 21.5635Z" fill="#6DCDF6"/>
</svg>
