<svg width="182" height="42" viewBox="0 0 182 42" fill="none" xmlns="http://www.w3.org/2000/svg">
<g clip-path="url(#clip0_3502_36049)">
<path d="M166.621 6.60953L166.07 0H165.178L164.628 6.60953C164.514 7.94914 163.407 8.99368 162.048 9.04679L149.249 9.5425V10.4218L162.329 10.9293C163.562 10.9765 164.61 11.8499 164.861 13.042L165.178 14.5351H166.07L166.388 13.042C166.639 11.8499 167.687 10.9765 168.92 10.9293L182.006 10.4218V9.5425L169.207 9.04679C167.848 8.99368 166.741 7.94914 166.627 6.60953" fill="#007AC2"/>
<path d="M131.674 22.3073C132.135 18.6189 129.638 16.1758 125.819 16.1758H117.528C113.332 16.1758 109.123 19.1265 107.95 23.4404C106.777 27.7543 109.381 30.7049 113.577 30.7049H121.868C125.687 30.7049 129.513 28.2618 131.051 24.5734H122.311C121.575 26.3615 120.515 26.8454 118.767 26.8454C116.696 26.8454 115.96 26.1668 116.702 23.4404C117.444 20.7139 118.546 20.0353 120.623 20.0353C122.371 20.0353 123.167 20.5192 122.934 22.3073H131.674Z" fill="#002159"/>
<path d="M99.8028 16.1758H91.2784C87.082 16.1758 82.8737 19.1265 81.7064 23.4404C80.5331 27.7543 83.1311 30.7049 87.3334 30.7049H95.8579C100.054 30.7049 104.263 27.7543 105.436 23.4404C106.609 19.1265 104.005 16.1758 99.8088 16.1758M92.6492 26.8454C90.4942 26.8454 89.7219 26.1668 90.4642 23.4404C91.2065 20.7139 92.3439 20.0353 94.499 20.0353C96.654 20.0353 97.4262 20.7139 96.684 23.4404C95.9417 26.1668 94.7983 26.8454 92.6492 26.8454Z" fill="#002159"/>
<path d="M75.3307 16.1758H59.4373L55.4863 30.7049H64.0107L64.9386 27.2999H72.3077C75.4864 27.2999 78.6471 25.1636 79.575 21.7349C80.5029 18.3121 78.5094 16.1758 75.3307 16.1758ZM66.9141 20.0353H69.56C70.5118 20.0353 71.0805 20.7965 70.8231 21.7408C70.5657 22.6791 69.5839 23.4404 68.6321 23.4404H65.9862L66.9141 20.0353Z" fill="#002159"/>
<path d="M39.7311 16.1758L26.3398 30.7049H35.3252L45.1187 20.0766L42.2333 30.7049H50.7518L54.7027 16.1758H39.7311Z" fill="#002159"/>
<path d="M146.771 27.1582L143.623 25.5767L148.699 20.0707L146.771 27.1523V27.1582ZM143.305 16.1758L129.914 30.7049H138.893L141.078 28.3326L145.802 30.7049H154.32L158.271 16.1758H143.299H143.305Z" fill="#002159"/>
<path d="M16.8573 27.1582L13.7085 25.5767L18.7849 20.0707L16.8573 27.1523V27.1582ZM13.3912 16.1758L0 30.7049H8.97938L11.1644 28.3326L15.8875 30.7049H24.4059L28.3569 16.1758H13.3912Z" fill="#002159"/>
<path d="M3.60971 39.8108L2.77163 37.6214L1.9156 39.8108H3.6157H3.60971ZM2.37654 36.4766H3.21462L5.56721 41.8586H4.45377L3.94494 40.6252H1.58037L1.0895 41.8586H0L2.37654 36.4766Z" fill="#002159"/>
<path d="M8.17094 41.0619H9.04494C9.54778 41.0619 10.2661 40.9616 10.2661 40.2534C10.2661 39.6869 9.87104 39.4922 9.08684 39.4922H8.17693V41.056L8.17094 41.0619ZM8.17094 38.6719H9.03297C9.67948 38.6719 10.0267 38.4063 10.0267 37.9401C10.0267 37.4739 9.67948 37.2732 8.94916 37.2732H8.17094V38.6719ZM7.20117 36.4825H9.33228C10.1584 36.4825 11.0084 36.8542 11.0084 37.8339C11.0084 38.4417 10.6253 38.843 10.0626 39.0141V39.0259C10.751 39.1145 11.2419 39.5748 11.2419 40.2947C11.2419 41.4691 10.2063 41.8586 9.17664 41.8586H7.20716V36.4766L7.20117 36.4825Z" fill="#002159"/>
<path d="M13.1396 36.4824H14.1154V40.4186H14.1394L16.6955 36.4824H17.7491V41.8645H16.7733V37.9578H16.7613L14.2052 41.8645H13.1396V36.4824Z" fill="#002159"/>
<path d="M22.9868 39.8108L22.1487 37.6214L21.2927 39.8108H22.9868ZM21.7536 36.4766H22.5917L24.9443 41.8586H23.8309L23.322 40.6252H20.9515L20.4606 41.8586H19.3711L21.7476 36.4766H21.7536Z" fill="#002159"/>
<path d="M26.5791 36.4824H27.5549V38.8076H27.5728L29.8596 36.4824H31.1706L28.6144 38.9669L31.3382 41.8645H29.9733L27.5728 39.1675H27.5549V41.8645H26.5791V36.4824Z" fill="#002159"/>
<path d="M35.0973 41.1435C36.2168 41.1435 36.983 40.3055 36.983 39.1607C36.983 38.0158 36.2347 37.1896 35.0973 37.1896C33.9599 37.1896 33.2236 38.0512 33.2236 39.1607C33.2236 40.2701 33.9899 41.1435 35.0973 41.1435ZM35.0913 36.3457C36.7974 36.3457 38.0366 37.4316 38.0366 39.1607C38.0366 40.8898 36.7974 42.0051 35.0913 42.0051C33.3853 42.0051 32.1641 40.8425 32.1641 39.1607C32.1641 37.4788 33.4032 36.3457 35.0913 36.3457Z" fill="#002159"/>
<path d="M39.9219 36.4824H41.4424L42.8611 40.3065H42.8851L44.2859 36.4824H45.8123V41.8645H44.8486V37.5388H44.8366L43.1724 41.8645H42.496L40.8617 37.5388H40.8438V41.8645H39.9219V36.4824Z" fill="#002159"/>
<path d="M47.9854 36.4824H52.4391V41.8645H51.4693V37.3145H48.9611V41.8645H47.9854V36.4824Z" fill="#002159"/>
<path d="M57.6831 39.8108L56.845 37.6214L55.989 39.8108H57.6831ZM56.4499 36.4766H57.288L59.6406 41.8586H58.5271L58.0183 40.6252H55.6478L55.1569 41.8586H54.0674L56.4439 36.4766H56.4499Z" fill="#002159"/>
<path d="M61.2754 36.4824H62.2452V38.6541H64.8013V36.4824H65.7711V41.8645H64.8013V39.4744H62.2452V41.8645H61.2754V36.4824Z" fill="#002159"/>
<path d="M67.9375 36.4824H68.9133V40.4186H68.9372L71.4993 36.4824H72.5469V41.8645H71.5712V37.9578H71.5592L69.0031 41.8645H67.9375V36.4824Z" fill="#002159"/>
<path d="M77.4083 38.9315V37.285H76.654C75.9656 37.285 75.4987 37.5034 75.4987 38.0994C75.4987 38.6954 75.9716 38.9256 76.6839 38.9256H77.4083V38.9315ZM75.7321 39.5865C74.9838 39.3977 74.5289 38.8725 74.5289 38.0817C74.5289 36.9486 75.349 36.4824 76.5882 36.4824H78.378V41.8645H77.4083V39.7105H76.7318L75.4508 41.8645H74.2715L75.7381 39.5806L75.7321 39.5865Z" fill="#002159"/>
</g>
<defs>
<clipPath id="clip0_3502_36049">
<rect width="182" height="42" fill="white"/>
</clipPath>
</defs>
</svg>
