<svg width="1438" height="500" viewBox="0 0 1438 500" fill="none" xmlns="http://www.w3.org/2000/svg">
<path d="M847.818 351.923C847.818 351.923 842.068 290.354 842.068 207.002C842.068 123.65 840.979 -1.37695 840.979 -1.37695H833.149C833.149 -1.37695 833.36 125.317 833.36 207.002C833.36 288.687 827.549 351.923 827.549 351.923C826.393 372.511 816.701 388.564 802.884 389.381C802.884 389.381 715.809 395.377 590.639 395.377C465.469 395.377 0.707031 393.665 0.707031 393.665V407.178C0.707031 407.178 446.966 410.38 590.639 410.38C734.313 410.38 802.884 418.312 802.884 418.312C815.422 419.038 826.944 432.461 829.5 450.781C832.057 469.102 830.32 464.733 831.5 473.727C832.681 482.721 834 618.12 834 618.12H841C841 618.12 842.341 482.72 843.5 473.727C844.66 464.734 843.173 467.059 845.444 450.781C848 432.461 858.652 419.038 871.19 418.312C871.19 418.312 913.904 412.047 962.884 412.047C1011.86 412.047 1440.71 410.38 1440.71 410.38V397.044C1440.71 397.044 1012.95 395.377 962.884 395.377C912.816 395.377 874.112 389.381 874.112 389.381C860.295 388.564 849.035 372.511 847.879 351.923" fill="white"/>
</svg>
